<mxfile host="Electron" modified="2023-11-28T13:35:47.488Z" agent="Mozilla/5.0 (Windows NT 10.0; Win64; x64) AppleWebKit/537.36 (KHTML, like Gecko) draw.io/22.1.2 Chrome/114.0.5735.289 Electron/25.9.4 Safari/537.36" etag="HWbvMmjY4N4dHA_sM8XY" version="22.1.2" type="device">
  <diagram id="9ErO5V0Ud8HPF7vC4Q-h" name="AWS Final">
    <mxGraphModel dx="1018" dy="820" grid="0" gridSize="10" guides="1" tooltips="1" connect="1" arrows="1" fold="1" page="0" pageScale="1" pageWidth="1100" pageHeight="850" math="0" shadow="0">
      <root>
        <mxCell id="0" />
        <mxCell id="1" parent="0" />
        <mxCell id="XQOPoHDsZ4K9HdGl6XsR-1" value="KLAP On-Premise" style="sketch=0;outlineConnect=0;gradientColor=none;html=1;whiteSpace=wrap;fontSize=12;fontStyle=0;shape=mxgraph.aws4.group;grIcon=mxgraph.aws4.group_on_premise;strokeColor=#858B94;fillColor=none;verticalAlign=top;align=left;spacingLeft=30;fontColor=#858B94;dashed=0;" parent="1" vertex="1">
          <mxGeometry x="545" y="1570" width="1011" height="301" as="geometry" />
        </mxCell>
        <mxCell id="XQOPoHDsZ4K9HdGl6XsR-2" value="AWS Cloud" style="points=[[0,0],[0.25,0],[0.5,0],[0.75,0],[1,0],[1,0.25],[1,0.5],[1,0.75],[1,1],[0.75,1],[0.5,1],[0.25,1],[0,1],[0,0.75],[0,0.5],[0,0.25]];outlineConnect=0;gradientColor=none;html=1;whiteSpace=wrap;fontSize=12;fontStyle=0;container=1;pointerEvents=0;collapsible=0;recursiveResize=0;shape=mxgraph.aws4.group;grIcon=mxgraph.aws4.group_aws_cloud_alt;strokeColor=#232F3E;fillColor=none;verticalAlign=top;align=left;spacingLeft=30;fontColor=#232F3E;dashed=0;" parent="1" vertex="1">
          <mxGeometry x="450" y="160" width="1215" height="1353" as="geometry" />
        </mxCell>
        <mxCell id="XQOPoHDsZ4K9HdGl6XsR-3" value="Region Virginia" style="points=[[0,0],[0.25,0],[0.5,0],[0.75,0],[1,0],[1,0.25],[1,0.5],[1,0.75],[1,1],[0.75,1],[0.5,1],[0.25,1],[0,1],[0,0.75],[0,0.5],[0,0.25]];outlineConnect=0;gradientColor=none;html=1;whiteSpace=wrap;fontSize=12;fontStyle=0;container=1;pointerEvents=0;collapsible=0;recursiveResize=0;shape=mxgraph.aws4.group;grIcon=mxgraph.aws4.group_region;strokeColor=#147EBA;fillColor=none;verticalAlign=top;align=left;spacingLeft=30;fontColor=#147EBA;dashed=1;" parent="1" vertex="1">
          <mxGeometry x="486" y="194" width="1143" height="1277" as="geometry" />
        </mxCell>
        <mxCell id="XQOPoHDsZ4K9HdGl6XsR-4" style="edgeStyle=orthogonalEdgeStyle;rounded=0;orthogonalLoop=1;jettySize=auto;html=1;exitX=0;exitY=0.5;exitDx=0;exitDy=0;exitPerimeter=0;" parent="XQOPoHDsZ4K9HdGl6XsR-3" source="XQOPoHDsZ4K9HdGl6XsR-5" target="XQOPoHDsZ4K9HdGl6XsR-7" edge="1">
          <mxGeometry relative="1" as="geometry" />
        </mxCell>
        <mxCell id="XQOPoHDsZ4K9HdGl6XsR-5" value="Amazon EventBridge&lt;br style=&quot;border-color: var(--border-color); color: rgb(0, 0, 0);&quot;&gt;&lt;span style=&quot;color: rgb(0, 0, 0);&quot;&gt;Scheduler&lt;/span&gt;" style="sketch=0;points=[[0,0,0],[0.25,0,0],[0.5,0,0],[0.75,0,0],[1,0,0],[0,1,0],[0.25,1,0],[0.5,1,0],[0.75,1,0],[1,1,0],[0,0.25,0],[0,0.5,0],[0,0.75,0],[1,0.25,0],[1,0.5,0],[1,0.75,0]];outlineConnect=0;fontColor=#232F3E;fillColor=#E7157B;strokeColor=#ffffff;dashed=0;verticalLabelPosition=bottom;verticalAlign=top;align=center;html=1;fontSize=12;fontStyle=0;aspect=fixed;shape=mxgraph.aws4.resourceIcon;resIcon=mxgraph.aws4.eventbridge;spacingTop=-90;" parent="XQOPoHDsZ4K9HdGl6XsR-3" vertex="1">
          <mxGeometry x="985.51" y="48" width="50" height="50" as="geometry" />
        </mxCell>
        <mxCell id="XQOPoHDsZ4K9HdGl6XsR-6" value="" style="rounded=0;orthogonalLoop=1;jettySize=auto;html=1;exitX=1;exitY=0.5;exitDx=0;exitDy=0;exitPerimeter=0;edgeStyle=orthogonalEdgeStyle;" parent="XQOPoHDsZ4K9HdGl6XsR-3" source="XQOPoHDsZ4K9HdGl6XsR-5" target="XQOPoHDsZ4K9HdGl6XsR-24" edge="1">
          <mxGeometry relative="1" as="geometry">
            <mxPoint x="1035" y="74" as="sourcePoint" />
            <mxPoint x="938.5000000000005" y="527" as="targetPoint" />
            <Array as="points">
              <mxPoint x="1056" y="73" />
              <mxPoint x="1056" y="558" />
              <mxPoint x="949" y="558" />
            </Array>
          </mxGeometry>
        </mxCell>
        <mxCell id="XQOPoHDsZ4K9HdGl6XsR-7" value="AWS Step Functions workflow" style="points=[[0,0],[0.25,0],[0.5,0],[0.75,0],[1,0],[1,0.25],[1,0.5],[1,0.75],[1,1],[0.75,1],[0.5,1],[0.25,1],[0,1],[0,0.75],[0,0.5],[0,0.25]];outlineConnect=0;gradientColor=none;html=1;whiteSpace=wrap;fontSize=11;fontStyle=0;container=1;pointerEvents=0;collapsible=0;recursiveResize=0;shape=mxgraph.aws4.group;grIcon=mxgraph.aws4.group_aws_step_functions_workflow;strokeColor=#CD2264;fillColor=none;verticalAlign=top;align=left;spacingLeft=30;fontColor=#CD2264;dashed=0;" parent="XQOPoHDsZ4K9HdGl6XsR-3" vertex="1">
          <mxGeometry x="848" y="158" width="187.51" height="378" as="geometry" />
        </mxCell>
        <mxCell id="XQOPoHDsZ4K9HdGl6XsR-8" value="Finish" style="ellipse;whiteSpace=wrap;html=1;aspect=fixed;fillColor=#d5e8d4;strokeColor=#82b366;" parent="XQOPoHDsZ4K9HdGl6XsR-7" vertex="1">
          <mxGeometry x="82" y="324" width="43" height="43" as="geometry" />
        </mxCell>
        <mxCell id="XQOPoHDsZ4K9HdGl6XsR-9" value="start" style="ellipse;whiteSpace=wrap;html=1;aspect=fixed;fillColor=#d5e8d4;strokeColor=#82b366;" parent="XQOPoHDsZ4K9HdGl6XsR-3" vertex="1">
          <mxGeometry x="930" y="195" width="44" height="44" as="geometry" />
        </mxCell>
        <mxCell id="XQOPoHDsZ4K9HdGl6XsR-10" value="create ECS Task" style="rounded=0;whiteSpace=wrap;html=1;" parent="XQOPoHDsZ4K9HdGl6XsR-3" vertex="1">
          <mxGeometry x="901" y="265" width="102" height="36" as="geometry" />
        </mxCell>
        <mxCell id="XQOPoHDsZ4K9HdGl6XsR-11" value="" style="sketch=0;points=[[0,0,0],[0.25,0,0],[0.5,0,0],[0.75,0,0],[1,0,0],[0,1,0],[0.25,1,0],[0.5,1,0],[0.75,1,0],[1,1,0],[0,0.25,0],[0,0.5,0],[0,0.75,0],[1,0.25,0],[1,0.5,0],[1,0.75,0]];outlineConnect=0;fontColor=#232F3E;fillColor=#ED7100;strokeColor=#ffffff;dashed=0;verticalLabelPosition=bottom;verticalAlign=top;align=center;html=1;fontSize=12;fontStyle=0;aspect=fixed;shape=mxgraph.aws4.resourceIcon;resIcon=mxgraph.aws4.ecs;strokeWidth=2;" parent="XQOPoHDsZ4K9HdGl6XsR-3" vertex="1">
          <mxGeometry x="864.9999999999998" y="263" width="40" height="40" as="geometry" />
        </mxCell>
        <mxCell id="XQOPoHDsZ4K9HdGl6XsR-12" style="edgeStyle=orthogonalEdgeStyle;rounded=0;orthogonalLoop=1;jettySize=auto;html=1;" parent="XQOPoHDsZ4K9HdGl6XsR-3" source="XQOPoHDsZ4K9HdGl6XsR-9" target="XQOPoHDsZ4K9HdGl6XsR-10" edge="1">
          <mxGeometry relative="1" as="geometry" />
        </mxCell>
        <mxCell id="XQOPoHDsZ4K9HdGl6XsR-13" style="edgeStyle=orthogonalEdgeStyle;rounded=0;orthogonalLoop=1;jettySize=auto;html=1;entryX=0.5;entryY=0;entryDx=0;entryDy=0;" parent="XQOPoHDsZ4K9HdGl6XsR-3" source="XQOPoHDsZ4K9HdGl6XsR-14" target="XQOPoHDsZ4K9HdGl6XsR-8" edge="1">
          <mxGeometry relative="1" as="geometry" />
        </mxCell>
        <mxCell id="XQOPoHDsZ4K9HdGl6XsR-14" value="Send to On-Prem" style="rounded=0;whiteSpace=wrap;html=1;" parent="XQOPoHDsZ4K9HdGl6XsR-3" vertex="1">
          <mxGeometry x="900.3399999999999" y="426" width="102.33" height="36" as="geometry" />
        </mxCell>
        <mxCell id="XQOPoHDsZ4K9HdGl6XsR-15" value="" style="sketch=0;points=[[0,0,0],[0.25,0,0],[0.5,0,0],[0.75,0,0],[1,0,0],[0,1,0],[0.25,1,0],[0.5,1,0],[0.75,1,0],[1,1,0],[0,0.25,0],[0,0.5,0],[0,0.75,0],[1,0.25,0],[1,0.5,0],[1,0.75,0]];outlineConnect=0;fontColor=#232F3E;gradientColor=#F78E04;gradientDirection=north;fillColor=#D05C17;strokeColor=#ffffff;dashed=0;verticalLabelPosition=bottom;verticalAlign=top;align=center;html=1;fontSize=12;fontStyle=0;aspect=fixed;shape=mxgraph.aws4.resourceIcon;resIcon=mxgraph.aws4.lambda;" parent="XQOPoHDsZ4K9HdGl6XsR-3" vertex="1">
          <mxGeometry x="862.6700000000001" y="424.5" width="40" height="40" as="geometry" />
        </mxCell>
        <mxCell id="XQOPoHDsZ4K9HdGl6XsR-16" style="rounded=0;orthogonalLoop=1;jettySize=auto;html=1;" parent="XQOPoHDsZ4K9HdGl6XsR-3" source="XQOPoHDsZ4K9HdGl6XsR-17" target="XQOPoHDsZ4K9HdGl6XsR-14" edge="1">
          <mxGeometry relative="1" as="geometry" />
        </mxCell>
        <mxCell id="XQOPoHDsZ4K9HdGl6XsR-17" value="Delete Task" style="rounded=0;whiteSpace=wrap;html=1;" parent="XQOPoHDsZ4K9HdGl6XsR-3" vertex="1">
          <mxGeometry x="900.6700000000001" y="373" width="102" height="36" as="geometry" />
        </mxCell>
        <mxCell id="XQOPoHDsZ4K9HdGl6XsR-18" value="Async Wait" style="rounded=0;whiteSpace=wrap;html=1;fillColor=#f5f5f5;fontColor=#333333;strokeColor=#666666;" parent="XQOPoHDsZ4K9HdGl6XsR-3" vertex="1">
          <mxGeometry x="901" y="322" width="102" height="35" as="geometry" />
        </mxCell>
        <mxCell id="XQOPoHDsZ4K9HdGl6XsR-19" style="rounded=0;orthogonalLoop=1;jettySize=auto;html=1;" parent="XQOPoHDsZ4K9HdGl6XsR-3" source="XQOPoHDsZ4K9HdGl6XsR-18" target="XQOPoHDsZ4K9HdGl6XsR-17" edge="1">
          <mxGeometry relative="1" as="geometry" />
        </mxCell>
        <mxCell id="XQOPoHDsZ4K9HdGl6XsR-20" value="" style="sketch=0;points=[[0,0,0],[0.25,0,0],[0.5,0,0],[0.75,0,0],[1,0,0],[0,1,0],[0.25,1,0],[0.5,1,0],[0.75,1,0],[1,1,0],[0,0.25,0],[0,0.5,0],[0,0.75,0],[1,0.25,0],[1,0.5,0],[1,0.75,0]];outlineConnect=0;fontColor=#232F3E;fillColor=#ED7100;strokeColor=#ffffff;dashed=0;verticalLabelPosition=bottom;verticalAlign=top;align=center;html=1;fontSize=12;fontStyle=0;aspect=fixed;shape=mxgraph.aws4.resourceIcon;resIcon=mxgraph.aws4.ecs;strokeWidth=2;" parent="XQOPoHDsZ4K9HdGl6XsR-3" vertex="1">
          <mxGeometry x="862.6699999999998" y="371" width="40" height="40" as="geometry" />
        </mxCell>
        <mxCell id="XQOPoHDsZ4K9HdGl6XsR-21" style="edgeStyle=orthogonalEdgeStyle;rounded=0;orthogonalLoop=1;jettySize=auto;html=1;exitX=0.5;exitY=1;exitDx=0;exitDy=0;entryX=0.5;entryY=0;entryDx=0;entryDy=0;" parent="XQOPoHDsZ4K9HdGl6XsR-3" source="XQOPoHDsZ4K9HdGl6XsR-10" target="XQOPoHDsZ4K9HdGl6XsR-18" edge="1">
          <mxGeometry relative="1" as="geometry" />
        </mxCell>
        <mxCell id="XQOPoHDsZ4K9HdGl6XsR-22" value="Lambda Function" style="outlineConnect=0;dashed=1;verticalLabelPosition=bottom;verticalAlign=top;align=center;html=1;shape=mxgraph.aws3.lambda_function;fillColor=#F58534;gradientColor=none;aspect=fixed;" parent="XQOPoHDsZ4K9HdGl6XsR-3" vertex="1">
          <mxGeometry x="1057" y="993" width="40" height="41.74" as="geometry" />
        </mxCell>
        <mxCell id="XQOPoHDsZ4K9HdGl6XsR-23" style="edgeStyle=orthogonalEdgeStyle;rounded=0;orthogonalLoop=1;jettySize=auto;html=1;entryX=0.5;entryY=0;entryDx=0;entryDy=0;entryPerimeter=0;dashed=1;" parent="XQOPoHDsZ4K9HdGl6XsR-3" source="XQOPoHDsZ4K9HdGl6XsR-14" target="XQOPoHDsZ4K9HdGl6XsR-22" edge="1">
          <mxGeometry relative="1" as="geometry" />
        </mxCell>
        <mxCell id="XQOPoHDsZ4K9HdGl6XsR-24" value="AWS Step Functions workflow" style="points=[[0,0],[0.25,0],[0.5,0],[0.75,0],[1,0],[1,0.25],[1,0.5],[1,0.75],[1,1],[0.75,1],[0.5,1],[0.25,1],[0,1],[0,0.75],[0,0.5],[0,0.25]];outlineConnect=0;gradientColor=none;html=1;whiteSpace=wrap;fontSize=11;fontStyle=0;container=1;pointerEvents=0;collapsible=0;recursiveResize=0;shape=mxgraph.aws4.group;grIcon=mxgraph.aws4.group_aws_step_functions_workflow;strokeColor=#CD2264;fillColor=none;verticalAlign=top;align=left;spacingLeft=30;fontColor=#CD2264;dashed=0;" parent="XQOPoHDsZ4K9HdGl6XsR-3" vertex="1">
          <mxGeometry x="855" y="594" width="187" height="342" as="geometry" />
        </mxCell>
        <mxCell id="XQOPoHDsZ4K9HdGl6XsR-25" value="Finish" style="ellipse;whiteSpace=wrap;html=1;aspect=fixed;fillColor=#d5e8d4;strokeColor=#82b366;" parent="XQOPoHDsZ4K9HdGl6XsR-24" vertex="1">
          <mxGeometry x="78.00999999999999" y="287" width="43" height="43" as="geometry" />
        </mxCell>
        <mxCell id="XQOPoHDsZ4K9HdGl6XsR-26" value="create ECS Task" style="rounded=0;whiteSpace=wrap;html=1;" parent="XQOPoHDsZ4K9HdGl6XsR-3" vertex="1">
          <mxGeometry x="904" y="705" width="102" height="36" as="geometry" />
        </mxCell>
        <mxCell id="XQOPoHDsZ4K9HdGl6XsR-27" style="rounded=0;orthogonalLoop=1;jettySize=auto;html=1;" parent="XQOPoHDsZ4K9HdGl6XsR-3" source="XQOPoHDsZ4K9HdGl6XsR-28" target="XQOPoHDsZ4K9HdGl6XsR-25" edge="1">
          <mxGeometry relative="1" as="geometry">
            <mxPoint x="955.5099999999998" y="886" as="targetPoint" />
          </mxGeometry>
        </mxCell>
        <mxCell id="XQOPoHDsZ4K9HdGl6XsR-28" value="Delete Task" style="rounded=0;whiteSpace=wrap;html=1;" parent="XQOPoHDsZ4K9HdGl6XsR-3" vertex="1">
          <mxGeometry x="903.6700000000001" y="815" width="102" height="36" as="geometry" />
        </mxCell>
        <mxCell id="XQOPoHDsZ4K9HdGl6XsR-29" value="Async Wait" style="rounded=0;whiteSpace=wrap;html=1;fillColor=#f5f5f5;fontColor=#333333;strokeColor=#666666;" parent="XQOPoHDsZ4K9HdGl6XsR-3" vertex="1">
          <mxGeometry x="904" y="761" width="102" height="35" as="geometry" />
        </mxCell>
        <mxCell id="XQOPoHDsZ4K9HdGl6XsR-30" style="rounded=0;orthogonalLoop=1;jettySize=auto;html=1;" parent="XQOPoHDsZ4K9HdGl6XsR-3" source="XQOPoHDsZ4K9HdGl6XsR-29" target="XQOPoHDsZ4K9HdGl6XsR-28" edge="1">
          <mxGeometry relative="1" as="geometry" />
        </mxCell>
        <mxCell id="XQOPoHDsZ4K9HdGl6XsR-31" value="start" style="ellipse;whiteSpace=wrap;html=1;aspect=fixed;fillColor=#d5e8d4;strokeColor=#82b366;" parent="XQOPoHDsZ4K9HdGl6XsR-3" vertex="1">
          <mxGeometry x="933.01" y="625" width="44" height="44" as="geometry" />
        </mxCell>
        <mxCell id="XQOPoHDsZ4K9HdGl6XsR-32" value="" style="sketch=0;points=[[0,0,0],[0.25,0,0],[0.5,0,0],[0.75,0,0],[1,0,0],[0,1,0],[0.25,1,0],[0.5,1,0],[0.75,1,0],[1,1,0],[0,0.25,0],[0,0.5,0],[0,0.75,0],[1,0.25,0],[1,0.5,0],[1,0.75,0]];outlineConnect=0;fontColor=#232F3E;fillColor=#ED7100;strokeColor=#ffffff;dashed=0;verticalLabelPosition=bottom;verticalAlign=top;align=center;html=1;fontSize=12;fontStyle=0;aspect=fixed;shape=mxgraph.aws4.resourceIcon;resIcon=mxgraph.aws4.ecs;strokeWidth=2;" parent="XQOPoHDsZ4K9HdGl6XsR-3" vertex="1">
          <mxGeometry x="865.6699999999998" y="813" width="40" height="40" as="geometry" />
        </mxCell>
        <mxCell id="XQOPoHDsZ4K9HdGl6XsR-33" value="" style="sketch=0;points=[[0,0,0],[0.25,0,0],[0.5,0,0],[0.75,0,0],[1,0,0],[0,1,0],[0.25,1,0],[0.5,1,0],[0.75,1,0],[1,1,0],[0,0.25,0],[0,0.5,0],[0,0.75,0],[1,0.25,0],[1,0.5,0],[1,0.75,0]];outlineConnect=0;fontColor=#232F3E;fillColor=#ED7100;strokeColor=#ffffff;dashed=0;verticalLabelPosition=bottom;verticalAlign=top;align=center;html=1;fontSize=12;fontStyle=0;aspect=fixed;shape=mxgraph.aws4.resourceIcon;resIcon=mxgraph.aws4.ecs;strokeWidth=2;" parent="XQOPoHDsZ4K9HdGl6XsR-3" vertex="1">
          <mxGeometry x="867.9999999999998" y="703" width="40" height="40" as="geometry" />
        </mxCell>
        <mxCell id="XQOPoHDsZ4K9HdGl6XsR-34" style="edgeStyle=orthogonalEdgeStyle;rounded=0;orthogonalLoop=1;jettySize=auto;html=1;" parent="XQOPoHDsZ4K9HdGl6XsR-3" source="XQOPoHDsZ4K9HdGl6XsR-31" target="XQOPoHDsZ4K9HdGl6XsR-26" edge="1">
          <mxGeometry relative="1" as="geometry" />
        </mxCell>
        <mxCell id="XQOPoHDsZ4K9HdGl6XsR-35" style="rounded=0;orthogonalLoop=1;jettySize=auto;html=1;" parent="XQOPoHDsZ4K9HdGl6XsR-3" source="XQOPoHDsZ4K9HdGl6XsR-26" target="XQOPoHDsZ4K9HdGl6XsR-29" edge="1">
          <mxGeometry relative="1" as="geometry" />
        </mxCell>
        <mxCell id="XQOPoHDsZ4K9HdGl6XsR-36" value="AWS PrivateLink" style="sketch=0;points=[[0,0,0],[0.25,0,0],[0.5,0,0],[0.75,0,0],[1,0,0],[0,1,0],[0.25,1,0],[0.5,1,0],[0.75,1,0],[1,1,0],[0,0.25,0],[0,0.5,0],[0,0.75,0],[1,0.25,0],[1,0.5,0],[1,0.75,0]];outlineConnect=0;fontColor=#232F3E;fillColor=#8C4FFF;strokeColor=#ffffff;dashed=0;verticalLabelPosition=bottom;verticalAlign=top;align=center;html=1;fontSize=12;fontStyle=0;aspect=fixed;shape=mxgraph.aws4.resourceIcon;resIcon=mxgraph.aws4.vpc_privatelink;" parent="XQOPoHDsZ4K9HdGl6XsR-3" vertex="1">
          <mxGeometry x="208.5" y="1198" width="50" height="50" as="geometry" />
        </mxCell>
        <mxCell id="XQOPoHDsZ4K9HdGl6XsR-37" value="AWS IAM" style="sketch=0;points=[[0,0,0],[0.25,0,0],[0.5,0,0],[0.75,0,0],[1,0,0],[0,1,0],[0.25,1,0],[0.5,1,0],[0.75,1,0],[1,1,0],[0,0.25,0],[0,0.5,0],[0,0.75,0],[1,0.25,0],[1,0.5,0],[1,0.75,0]];outlineConnect=0;fontColor=#232F3E;fillColor=#DD344C;strokeColor=#ffffff;dashed=0;verticalLabelPosition=bottom;verticalAlign=top;align=center;html=1;fontSize=12;fontStyle=0;aspect=fixed;shape=mxgraph.aws4.resourceIcon;resIcon=mxgraph.aws4.identity_and_access_management;" parent="XQOPoHDsZ4K9HdGl6XsR-3" vertex="1">
          <mxGeometry x="835" y="1183.25" width="50" height="50" as="geometry" />
        </mxCell>
        <mxCell id="XQOPoHDsZ4K9HdGl6XsR-38" value="AWS Cloudtrail" style="sketch=0;points=[[0,0,0],[0.25,0,0],[0.5,0,0],[0.75,0,0],[1,0,0],[0,1,0],[0.25,1,0],[0.5,1,0],[0.75,1,0],[1,1,0],[0,0.25,0],[0,0.5,0],[0,0.75,0],[1,0.25,0],[1,0.5,0],[1,0.75,0]];points=[[0,0,0],[0.25,0,0],[0.5,0,0],[0.75,0,0],[1,0,0],[0,1,0],[0.25,1,0],[0.5,1,0],[0.75,1,0],[1,1,0],[0,0.25,0],[0,0.5,0],[0,0.75,0],[1,0.25,0],[1,0.5,0],[1,0.75,0]];outlineConnect=0;fontColor=#232F3E;fillColor=#E7157B;strokeColor=#ffffff;dashed=0;verticalLabelPosition=bottom;verticalAlign=top;align=center;html=1;fontSize=12;fontStyle=0;aspect=fixed;shape=mxgraph.aws4.resourceIcon;resIcon=mxgraph.aws4.cloudtrail;" parent="XQOPoHDsZ4K9HdGl6XsR-3" vertex="1">
          <mxGeometry x="934.33" y="1183.25" width="50" height="50" as="geometry" />
        </mxCell>
        <mxCell id="XQOPoHDsZ4K9HdGl6XsR-39" value="AWS Cloudwatch" style="outlineConnect=0;dashed=0;verticalLabelPosition=bottom;verticalAlign=top;align=center;html=1;shape=mxgraph.aws3.cloudwatch;fillColor=#759C3E;gradientColor=none;" parent="XQOPoHDsZ4K9HdGl6XsR-3" vertex="1">
          <mxGeometry x="1033.33" y="1181" width="59.5" height="54.5" as="geometry" />
        </mxCell>
        <mxCell id="XQOPoHDsZ4K9HdGl6XsR-40" value="Ambiente No PCI" style="rounded=1;whiteSpace=wrap;html=1;fillColor=#f5f5f5;fontColor=#333333;strokeColor=#666666;verticalAlign=top;align=right;fontStyle=1;fontSize=17;spacingRight=20;spacingTop=10;" parent="1" vertex="1">
          <mxGeometry x="580" y="1593.38" width="256" height="260.62" as="geometry" />
        </mxCell>
        <mxCell id="XQOPoHDsZ4K9HdGl6XsR-41" value="Ambiente PCI" style="rounded=1;whiteSpace=wrap;html=1;fillColor=#f5f5f5;fontColor=#333333;strokeColor=#666666;verticalAlign=top;align=right;fontStyle=1;fontSize=17;spacingRight=20;spacingTop=10;" parent="1" vertex="1">
          <mxGeometry x="844" y="1593.38" width="689" height="260.62" as="geometry" />
        </mxCell>
        <mxCell id="XQOPoHDsZ4K9HdGl6XsR-42" value="CNL" style="shape=mxgraph.signs.tech.computer;html=1;pointerEvents=1;fillColor=#000000;strokeColor=none;verticalLabelPosition=bottom;verticalAlign=top;align=center;spacingTop=-82;" parent="1" vertex="1">
          <mxGeometry x="1258.5" y="1758.38" width="58" height="60" as="geometry" />
        </mxCell>
        <mxCell id="XQOPoHDsZ4K9HdGl6XsR-43" value="Operadores" style="sketch=0;pointerEvents=1;shadow=0;dashed=0;html=1;strokeColor=none;fillColor=#505050;labelPosition=center;verticalLabelPosition=bottom;verticalAlign=top;outlineConnect=0;align=center;shape=mxgraph.office.users.user;horizontal=1;spacingTop=-75;" parent="1" vertex="1">
          <mxGeometry x="1350" y="1677" width="46" height="50" as="geometry" />
        </mxCell>
        <mxCell id="XQOPoHDsZ4K9HdGl6XsR-44" style="edgeStyle=orthogonalEdgeStyle;rounded=0;orthogonalLoop=1;jettySize=auto;html=1;" parent="1" source="XQOPoHDsZ4K9HdGl6XsR-45" target="XQOPoHDsZ4K9HdGl6XsR-52" edge="1">
          <mxGeometry relative="1" as="geometry" />
        </mxCell>
        <mxCell id="XQOPoHDsZ4K9HdGl6XsR-45" value="Producer" style="shape=mxgraph.signs.tech.computer;html=1;pointerEvents=1;fillColor=#000000;strokeColor=none;verticalLabelPosition=bottom;verticalAlign=top;align=center;spacingTop=-82;" parent="1" vertex="1">
          <mxGeometry x="927" y="1750.5" width="58" height="60" as="geometry" />
        </mxCell>
        <mxCell id="XQOPoHDsZ4K9HdGl6XsR-46" style="edgeStyle=orthogonalEdgeStyle;rounded=0;orthogonalLoop=1;jettySize=auto;html=1;exitX=0.995;exitY=0.5;exitDx=0;exitDy=0;exitPerimeter=0;entryX=0;entryY=0.5;entryDx=0;entryDy=0;entryPerimeter=0;" parent="1" source="XQOPoHDsZ4K9HdGl6XsR-47" target="XQOPoHDsZ4K9HdGl6XsR-49" edge="1">
          <mxGeometry relative="1" as="geometry">
            <Array as="points">
              <mxPoint x="809" y="1726" />
              <mxPoint x="880" y="1726" />
              <mxPoint x="880" y="1657" />
            </Array>
          </mxGeometry>
        </mxCell>
        <mxCell id="XQOPoHDsZ4K9HdGl6XsR-47" value="Consumer" style="shape=mxgraph.signs.tech.computer;html=1;pointerEvents=1;fillColor=#000000;strokeColor=none;verticalLabelPosition=bottom;verticalAlign=top;align=center;spacingTop=-82;" parent="1" vertex="1">
          <mxGeometry x="751" y="1698.38" width="58" height="60" as="geometry" />
        </mxCell>
        <mxCell id="XQOPoHDsZ4K9HdGl6XsR-48" style="edgeStyle=orthogonalEdgeStyle;rounded=0;orthogonalLoop=1;jettySize=auto;html=1;endArrow=none;endFill=0;" parent="1" source="XQOPoHDsZ4K9HdGl6XsR-49" edge="1">
          <mxGeometry relative="1" as="geometry">
            <Array as="points">
              <mxPoint x="1101" y="1612" />
              <mxPoint x="988" y="1612" />
            </Array>
            <mxPoint x="988.1111111111113" y="1553" as="targetPoint" />
          </mxGeometry>
        </mxCell>
        <mxCell id="XQOPoHDsZ4K9HdGl6XsR-49" value="Firewall&lt;br&gt;OnPremise" style="sketch=0;points=[[0,0,0],[0.25,0,0],[0.5,0,0],[0.75,0,0],[1,0,0],[0,1,0],[0.25,1,0],[0.5,1,0],[0.75,1,0],[1,1,0],[0,0.25,0],[0,0.5,0],[0,0.75,0],[1,0.25,0],[1,0.5,0],[1,0.75,0]];outlineConnect=0;fontColor=#232F3E;fillColor=#DD344C;strokeColor=#ffffff;dashed=0;verticalLabelPosition=bottom;verticalAlign=top;align=center;html=1;fontSize=12;fontStyle=0;aspect=fixed;shape=mxgraph.aws4.resourceIcon;resIcon=mxgraph.aws4.network_firewall;spacingTop=-63;spacingLeft=100;spacingRight=-20;" parent="1" vertex="1">
          <mxGeometry x="1072.51" y="1632" width="50" height="50" as="geometry" />
        </mxCell>
        <mxCell id="XQOPoHDsZ4K9HdGl6XsR-50" style="edgeStyle=orthogonalEdgeStyle;rounded=0;orthogonalLoop=1;jettySize=auto;html=1;" parent="1" source="XQOPoHDsZ4K9HdGl6XsR-52" target="XQOPoHDsZ4K9HdGl6XsR-49" edge="1">
          <mxGeometry relative="1" as="geometry">
            <mxPoint x="1100" y="1470.7750792187926" as="sourcePoint" />
          </mxGeometry>
        </mxCell>
        <mxCell id="XQOPoHDsZ4K9HdGl6XsR-51" value="" style="group" parent="1" vertex="1" connectable="0">
          <mxGeometry x="1066.6399999999999" y="1727" width="61.73000000000002" height="107" as="geometry" />
        </mxCell>
        <mxCell id="XQOPoHDsZ4K9HdGl6XsR-52" value="" style="sketch=0;outlineConnect=0;fontColor=#232F3E;gradientColor=none;fillColor=#232F3D;strokeColor=none;dashed=0;verticalLabelPosition=bottom;verticalAlign=top;align=center;html=1;fontSize=12;fontStyle=0;aspect=fixed;pointerEvents=1;shape=mxgraph.aws4.traditional_server;" parent="XQOPoHDsZ4K9HdGl6XsR-51" vertex="1">
          <mxGeometry width="61.73" height="107" as="geometry" />
        </mxCell>
        <mxCell id="XQOPoHDsZ4K9HdGl6XsR-53" value="RedPanda" style="shape=image;verticalLabelPosition=bottom;labelBackgroundColor=default;verticalAlign=top;aspect=fixed;imageAspect=0;image=data:image/png,iVBORw0KGgoAAAANSUhEUgAAAP4AAADGCAMAAADFYc2jAAABjFBMVEX////MOAX/6NYwBQB4BQDwvZTtYzgiAAD/6tnLNgATAAD/69ktAAAuAAAqAAAmAAAeAAAAAAD/8t93AAAcAADh3d1xAAAtBQAhAACbPiIYAABsAAAdAADxvpUqBQAMAAD0yKXKLQDSQRP5xZr2ZzrIIAD84Mo/HBjJnI/aTCBaBQBlBQD6xZv52L40BQDfhmDx7+/mzr72z7C9trY9BQBSBQBEBQDgr4njVyzZcVbttJ/EUC2Zjo6yq6rSu6yTbFTSVS5/MBvjlX730LxgRkCBc3KReW9dQjzQy8vm4+OJNTCHIwPt1cVtXFvfh2+vhGfWZT+zSCmXOyHClXSwmY3XsKKljoJ6YVmaHgPAMgRYPTeTiId6VULpqJLrrYPjlW5bOCtNFwxzKxhHLCt0ZWSDa2I6GBaiYlqzfHLeuqurJwPSo39OKiDYbkiYgXZfIRLce2GWTUalXEi4c1paAAC5hXqBIx9EGgxmRzyJZE66knbcfFTXrIihNBVMNSo2IBt2HgLWk36ZSjnChGdNUEeLAAAgAElEQVR4nN19iVvUyLr30AvpJN3p7nTTtGlCCL2gbLIIqOyCigoCwriAO4qjqDOOZ/yOd86995yZf/yrNamqVLoTB3W+r5555lEhlfq99da715sffog+eqYP17di/P53GFvrh9M9pz9tz+LVo6JWyGeVo4nTn/20xsRxPpvv05yjq4unRoMNgNyByJNoGMpXoO7pjJ6qgdeYzRdOgwYCcjK3s3E6qz3tMe3w6/wrNJAixyNXXDztlZ/GWCzmgmulNIi5YweOFDkZztWvg+CvjKta6HIBDYrxRPaRBLuhlC1CYOtvpwC2yoQ1rbJiSNa+Hms2g2OkHECuaQfX9pcMMvXfTAFMHCkEprG0f+1A0wANOATZ41jzORxy6/q1/UndNHV9c4i+J3c4feMrgYk3gE4ep0JPGdrU4Ton969dt1ga5KxYc2L4+bJW9pAn4NAT65TLlLJjvDg9/fpFY2Nxq6D15SnI8nqCLJPSAADIY3EVZ9oJBD/PISfDfOnLmByQq9r6wsb3OAgTGwvrjlZleVx7abIrpTRA+J04a+xBEIs6j5zgv8trGEOxnONTNLMijBvTQCtbgojLFe+awdUCCEVEmjgndcNC8l0CHuJfCmhYaGqWtxa+hT3Us/gi65SDWjlXXJKghwRAWLQ42zNtIWkpny9hThbyveLrgZCsWs7RVxWIGwtbFjDFJOZNb74wGbbaY/j7VpytWeyD8I9CJkzom8Oz4/39vUEaZIFAzL+Ia2RFGBPThweOVTWC0Ht7+/vHZ4c35awK4CMbpjwd42ULVXio18PgA/l6s5QambkgJUHOKGjF64enJxBvLF49Dhx1D/qFmZFU6WYiDH3CXIcPFuIY6odQu+fvhcJP6OarWgqM2vBsEtAguDAoEJOnIBB7FreqTp/MAAfIk7PDeBWvzFD0CfMeFP3VhRgvvQqfUK6Fwwez/obeDEZleGZcSgLob1hAIPZ84QCqTdMKEn6H0MdnhitkAbXf2i70GtxL5TAG/C3IL9X34SSF0/5YK6W8EX4Sqpb2haMtv3ujVPuxHfqE/h6e5HwcLw0fl/228BPm6wqDn54ECQlObQDolN999JXXbdEn9P0CeNSI46QdI2HZAT5QACkef7uT8Jehc/zuo0+FinwPPjTTswcx4PchVbnUYWKoAALraXcSvhS5yO8MtduIfLrIJWjE5HIx4CObV+sIH5iUr6T4IQmGZ3tPgQQAeq/I7wz6VzKzXIQP0cRx+bDHo3ViKzjMn8KW5p2EPBhK7AGfkvO7P2o/tT/2GP4m2swYLt8N/ECr89wA/9laQABwJBi5BcaZ2AM+NdIGOhT5ZyOgTyQ20WbGcPmww+dE2HyI/3Ub/KXK/S4VjMFGzDEIn+q63wZ/qdZB5NOhY16OboEhhy9nRIMPuKsUhr+SeqB2waEOdscag+SxB6kwApRKUc4mWp8R0+eZRqpiKBpxwfwtuQIold5gFLHxD/rPvZHTtnKzFRF9whzKxoO/iAyFg6jwgQL4IMEP+J4ZcfD76OGQnYDKh84i34N/AI24vug+zwK0ko02Hk/wFQEF4PF9fPyDwoPBExBJ5Htru4dM+OjwscP3MsYrRAVQqrzhMcTAPxh88g1nXkcV+XRpL5EDF93le9HZ4Qu+hPWAoLwXMUTFH0QPnmRPQCcfJ7Ay5PLF8Hmww3c38unCb5mkQqok8n0c/DL0iAGof1EqhYW1QoZ+FwVvovs8KDzUJ3g8mY6vaX2qpLCqDxud8Yegh+M+OgGVT5FFPl3XPgzdxUhz5YIej/k5Av4EUACVWyFbHwl/G/RABN4C03/o6OMkMvpDlj+wz5M9igy/LIH/dLkz/oT5SiLyYuBvh74LicBXUaz85XF26cTly0eGj63ESW6Ot8W9VgT8HQC0xx/h4SjHfq84zror+iSy4SO7fNjhc1ijMtP6P0Y+3Rm/7nYA0A5/R/RdXW6Ec59WssoY83s68XmiwiceDwdrajyXP6h3xN9qdkQQij8C+q5m5x0YfWoktSnu1zA3R82/YI+nzBI6M5DPJa3lTvgzaxHgh+CPgr6rudZ++zOJ+jJwWBybXaeOgleRXT6U4sol2WOWsSFHFE/s9vj1y24EDFL8kdB3uZfbws8k7BO41docJ7aTsVw+WYorDWfNGun2519/FAm+BH809F3uo3bwAfo08m61OVb2xUxzLQZTXK05JA/y/6yn21kd+u1o8AP4I6Lvcm+3eXsmka4/Rdl862SM2aWYaa5giiszhuEnre16u/03L0WEL+CPir7LvRSu+SD6ZQsvc4+VfTHTXMEUV2bqBM+bdP5lt9l/cz4qDg5/ZPRd6koofIAeH3zI6HsDLPx4aS7k8ShsiiszukfgZ4/tdDh+U+bodcQfHX2XqobBz7TS6XSSpEIL26zo19/HcvmCKS49vUcqmpLKP0fb4I+i90T8MdADzdcGff2febLI6rbN/CxmmiuY4mrZ2wWaeNDA8Q/Br4/FgU/wx0IfpvgR+m2LrlFZthnRj9NcRtQ0V170eDJj9nbVS7zA4y/Hr0eyenj88dCHwIfovYOP4TOin7h8USsbAymuzJS9rHhzg+Mfgj+i1cPij4lebvcg9PaxXwOR/1wfYOGjNJcSDf1EwOHLDIwy8JPKQ8D+Mvz6lZjwgSiL+YB7JfhaJPXqD5kV5h/WGdlHXL6IPg9JcW0y86frn/P+5Entv+T4I1s9Xz4kdg9Gv81WdBsPR9OM6I+V5sIOn8a+AdCWhZ/T5mwZfvNS3M2MPdSA3YPQ23NcPbvxFFhnzO9gRNFcPuzwKcxrxtKjD7k6E2MIbn8Av7ny9eGLdg9Gbw/xNznejqYZ2WcqMXwenOJiahr1KWBL82U21c8YP31FBoxEayr2UY4/3IEWfhuDnj/4cPVgexiz1zyOkeYKpLgyA+nRt0JpmfNfBD8GPjY1YNvnm18ffZfa/N22B6bGMBEI+m3hKkcuN5pmRD9Oc0V0+XCKi3H4Mna6PiTAz1no+KfHIHD4B/vxivv1wcPhrjxGb0xDIqBXz1li8ZsFNoeBH8flC6a4AH2z4guMo9G0P+z6E/cbbD0eqnu+bjMvr78NFMA54OeMTIqT5kKkYh0+aFBa4guSBXz8Mfr0zrdD3wUZIO3jr3+uBhYHVdOYDx+5fMaLKOivIueGSXFlxoBkdQJvAMff9rb+G8g8bqjuE8oA9T3J2iD8KQ8BTnMlrQjbv4ClCOPwZaZEtYpHroC3wLa/7dbjQRlAcvAh0hObkX3Y5QMb1vH0LxJSFn2THwh+Kfyk8T+j32Xr8SAMMBo8+AS+b/bqS0WCqoPwnya/p71nBD/0ppizf8HTsX3Lddt+9y3UnRz/Ttoe/ex54soFBv4eL/vek+0rttX9GwS9xcr9Fg8/+2zeO2zFk8eD7vcBjwigPtkr0rU488985dwH5RJj9povMYBcO/w95JJOgQ9zAvhesAdyRmOX4q9e/A6nnsXvXqRS39ltMAe0sA3gc9Hee5hLck5otuOGhtErXIwbHP30KOvwaSuNM/hNyp1z3xU9wH/uDj6K2pnGCgMfunxpNuAFTB/8i9lyiOczUcDMkz/QBfT2HKtbrPnuxh2cNO3+zugB/m58UetOo3uetU0cIPtYuxfIvwO8hVlD6vhO5LAINYbYAgKg9aBHwUrXwm53d2PVgpt/MWp24qudEfUi3H5rtdHdvVtgFgldXh6/nhgiAKVRr2PywxyHfizNR9Egy59pQPzlpBY5NXX50U7z65BAHezWkmWIvnGG8/o0ZJRNcfiTBKKk0OOIsEZhU0QvqtY8fFl347mz2ogIqDllmonLtweb7umbCGpj1XmOFrTKRmSAx45sclb86ZsKPd4ieiIYclxNB3Yn7T3e5jF+hm/rbvzcHVXwuZAJdd1ce3TJbZ4yE6gXu+l6ePunvB3EP0mFuxDz38L6I1fkCnpa2Kg+5p3d7Dh6XXejezDiCgeJDAYU0NeurJzuORjsJssZ55eZU7BV3OLwU9XOuT9XiVoX7sFi9Nt9SX44NDsVEYS6wkTdAQlal39RO5iKqutGha/S1Yiej0JcUi7XTc1fi0l5UWOvuM+hxy5Fuiq6FNoKfl8U3lcxfE4FJXTTXAuXAgB6c+dR5JSBeg6vZiXgluCALGv8Avz7FKtv/izi/S3si+YO8qYVcVqg+NGIsDZ3By5wx06LSXFdng9SVbc5ePtywjSnoieM8GrmAyGJ/EO8/bz5Q7w/JvR1SCwnTuxh9DJfDyp+MCIo/eZtWOqlvrPTwsUYaToMQG9eerRm6hn4ejcqeiD84ODUPjmlJyQqxos/fDR8538Ly0w2wIXMHaj0uAA/HFmleKcRiffV5iO0ie55NvaAFyHyNuT4lStrutcrwkY2RRQZibm/caeoiDd9jackIMeGPa/hvWZiP0l8unNWAL1g8cA2Bc/uzEcTfK4KNjLtYvg2z/1COgxIwl8ut5g2GZkxG+YM1MtRvGki/ObvPBP7LGl7JCTEmD8kOsIUuVKIflI7QyNJTHzfqGrjq7vdDaxnOvK+uwPNx8cQ/hOblz9iPkjtWjP5O9iZAQS/OdY654bMzzyOuR+ubHd1XKv6S84OkXikR319n4oIjaLvocfbD+7Tk+9ZPFlLeb67QqF3zsurzdsAUGbsCYU/xm2/yZ+cppguy6TtHQh/QE9c6igD2TqZRmNl97liUR4gto8PH4f8EXzq+U17zrxDhR+BP0otnuzPADqDvRPvq83LJpoGwX8sel9iGUgga99K2+9U+GQmYV7peABUbmFgoSs/k3VT24fC1ye9w+wlfRa8QLEX3sbw69seYYwLuzz8tryvqhhPxvbgc6pPFPxi1l6fStvn0ZNAY5iXOwlAyv0U/u4Fj/+V5VEWPhV8SeZyzwtPuOcsdvfttOZbPNm+7JnuiLyv7pDi9xYGgXaAK7IWBL+YtQeiBz/5BMosvZMA4Li/+0yyzMi/IrJ9vN0ve4i8UiemP5lFhB/effszJ/cL1Ts+Adpu/jsyy5T9OwRhC8I3UAcRKNcD7yZSAz6V0TsIANUHf6daZYW/9ZBlfl/wMbU+bJCICD9q8m0Xk+xQLEqAtkpfXcEnPWPDE6yqdU76JIKFAOo5Dj4KLyL45wnTmO3rRojhC8BbvI3qLHOiz7zua4VcAaO/wdp1RPgR+DCFwlv8iraKeb/9amy01y0kv9VzddH0NkXq8fVqKMCGVOZ56iyZv7TFj7l/VePB55xtTvExgi/pVXtssMYyEX4Ufrp+UhDc3VwEua/a0M+E2TGgvYHHkxY9b5GXedGfSVP4vxNnKTO20/6NaFE5weXV9mgaFsNnBF/SE/2LWPDjVny5Krf70OjPcWEEbT6CwQuFHU4PQfg7ouUdtPh50Y8KNqC9CL0F/C92+8IRzP3zfIVL9cRLwpLdR1UeBClNeKMS3qSxfg/nAZHw8+GDdQwxZj8J9bQFj1UdQAuYBygIiAENH37Am+VEP7a4bRf7iohpbLtTuSw6+2zAx0jO+VlgBB/X9yWr91AOmxb5YnGgvDdRJNi4bvLw07b9lKlpXIlk8EI7bwqmh1TEwXgiT/UFC+A40Y8t7rqKzw2QIpCNxCeEgVX/ClPZ+JbJgWP4uMohf2CiGl9a5VpAHAGrOFEkGAk/Fn7aHn1IxYOyGsnZQ/DTA3gLoceT5lRfsO6dF/1Y6pyDUhM6S1CGPO4EH7t9q/RwF57abAUEhI+vNME4PuYC3M0EVzHCi1v6ppElwo+Dn7brn8mpqkYweLv8DUcHGNMCrYHaXkHyMaIfh5ex2FBhqq6V7gyfqn7i9FsPR+20AB9tetaAODHkoi/4USWXvgm8wZwi7j7cimX0RPlMIwrvg+NeR8S3icNHlzJFCBA0YhjRT90tKOuhxTRlEyug/SsR9zfOIDOdqnt+9/MAnAXj+LjSC19uQoVcJNSBIqHwGIjwgQEEDIDshUYEZw+uZfDd+cc2IAGErw6eT3sEGAMEkIV6GNGfIStGPg85wMgE7vBKbPlcyDLqnoUPWZ5EsvH1DhzvwpEuUs0BI6GwqCsAHxhAVlaLGOhAMTvXXXn3BK0a/HkHcAABMpaRVT4zor9FVozsZVLEZf/e8Z006KHlnD0RPYQPBR+JZJNqDxTvwpEuGueDkdDiph6En67PVbHSixLk82hA/+j6LGC3JBasL/q9QBN2+Ww00p3rRYnb1/hZOwmgB/D1zaIXySbxPhTvQte1/S415nsN6EAJfGAArXR29sJXB1jgMZEIEgvOE/2ZBBWU2Feup5+c34kS86Nu38q/gugBfCD4/JIV3MsGxbuQU4O1Pcb/0jJku5+uP2lE5f0wCmAWqMvoh0V/Rp+iC0bw1ZVBcIqiZQYJ9zfOS+HrBlOygi0AWOKOI13sxSXzHjgiEubfI0GFv1DSQFjAlfwIiv4M0XkQfPo8IlKMnCjNd1wMCD4wHxBqTNEGvtwE41040sVd1tcP1oPw7X/9N9n8iJm9UAoMSsUYEP2ZMSIc7PrjnS/IAxLub/z3iR2Ev84WbRDDBzg9iwoxepgfJpRNEb6dfhYxwtuZANIJ3CstCh5s/BflQL2I7+yciH9gU2HLFojhU13EDk8uz7d33nwvwh/9H6L0YvO+24yUrsR+IbPxLngwJnzC/d3z/2sL+Afe8y2uTHRdK3/4wwEygISurLq4+/XPz2mYK/TlMrKobvPSWuJ2BCDqYJ3deLd5O7F2SV4MEC4PaMjr+UPh+A8I6O8RL/eHQ3I5V8DPw69vF8nMobyvDp4NYASS7nbL1BNmKwIBXLDx71wPfMtM6OA5iQhwz4ZpXj/iWxSs3gEBPXbhnAXvqw5lDj+1PcjBPyFpvXDeV93WqwfCPzXPPUrgvFXGbP3SiQDu7+cIVLf5S4vYJ3ri0TkxzP/gVStENHjc37hT5C0/rpuDea/sof+B7n9ZrGVkxJ6SpWQNUfoq0Fu1Nxw5mjuXmcRVBAKoDHj/Qd28vMOfgTc1cy0k8+HnO3IaJ/7YDCuP3sPfx+Bn4dv1t84u3Xw57wP05uvafe9nAPztNaFzsm7Cs9yWABi85MHbDAHU+7XXYfg97m/sOsdsuIO913Svj0Pv4S8whkGLOfgPy8+88L782DUv6+ZPlZRKidH1KOFh8NO2iAA+DGb4ZLzEgPee1M3ElS76pJqq/GTql6WBfz/f0XhWfcpcN/FzLOZ6QUD/ww8LTgC/j37Zclba8z5M6JmfSpUHeP9YrtfN/bsCAchD55hB5+HB391n54FnAP7Sg0rpE3hdCH5voStOH3PdxIMvQy/Bn/HQ7zm4kC+c95uPgJTerKUq8PC7LPPq5tKQVT5eYv8FO/uy7g1N/snjsjXEP4li/W8qqRpQY+YjGX5f9jdW85pv/XphtnX5xQYRP03ww8sSlrhOAf0VGCg6W0mVwOF3L5sZBsKBk+3tzzrrTJM1HOnyhLSvTth4nzm57mT7e7POAUOAjHnZBUe/lKqchSGbK7L6GIaqVo4Wt/gZToI++F0pgr+6zib5gPQ4zhbO+JlNGfrbcNXmB9hODUbnfPCT60VnyJkdGe83itc8mxPna/ikLGIq9xcK30xcKxr94yOz2pFTBKTzCACDv7Ap3Af0ytsy/N6cjTOFXH6OSzHo69UQ9CJ+ovjrT/O0itHbJX7QRcNmhZUuP25hbt4rOoDtJ29WUsO9vUqZHmTc3IZPySOy0qY0QFyUld7e4VTl5iQ4Ak7x3iaZEgWIK7BhIUNIAb7PVY3xrPEWW78Yfjv03jUe5TpcBfa765/7kjTCBUeQ2gSt/hq26kOHvwmjdmD/nLwCEevm2VoqNdOfhQcZERYffh4+YqM1nIkC4iLbP5NK1c6ix/eVvHMtAc8XknZv0Ite6z49hOFPOq+Ru/bY6tGvK23Qw2+aUfw6Vvz1bYemdUIEn/uObMxPqFMhbFSoukDp3bWUZC9ue6VPFgGWymy/4WDG0oEKk/TtUXGFi77uGP2zYLaZIo6/6eXepKLdBcoP6f77qGchaVVqvgvgZ04VTPpYyPoFal/vhN7HfwDw03YQjNIL8r67Q44lUHuokyRi4kv7Rl8u2T+DWVSf1CAnp2oXejEgE2V9efgwpbFDYs29FwC7gPNCw4+1mf5krpDfR1ut4oaVn4iY0OdF/OzMMOmD4p5jAP1BJ/QMfiCogNAHXqGyylR0BPZ+hVRxQLWHWpTif541kkmAuIbcLNQiHMixVGoWV47BJge85EN8hRsT6Pvl2VQKSEvaIh1OPdwLvLNZDBS3LK0RDy6TWAnsvz8rTPog67elJyKg5/CnbVjGr/Br5Ak9SMU5VHsIPjJ81PsKgl/5CRwDM4ECS73jgJ0VZFbDOLcg+aDsw5F+854Cjsp4LwrAwfrnxE8VBF/BJvUb8qKz9M0JURdzlIV5nSQsLaDoO1zkI/jzR5lReCe+zCg9kfdV1WtfgNUeOfxgAJ+iF6AoGXcTd/NY3EL4xjiCD5v6ifBhKz4Ef9yA8LESqu4n7mbBzDMAfhnPfJ+86IMXtG0J7j/L/Y1dsJL803qGXNbo/B1Jiv/6NeAT07QO3SHuNS7TvIH06C3dQr+jDhvJXsDDqdmCViDVIb0QBY6pmap49CFpUT8mfdOBdCNfNciBx9E0vUljGM98i/Zp9l6dEd1flrNg0idZ+Hw9H2nvGfwG5BaHUXoC76tMVg6rPf/wdwHu7yXrpqMfijMcUQX6Kggfa1B9yYJist97jE6jEL7yXvTaf7vg/nHcj65c5o3I6D38ySSn9ASDl0VP1J5/+Lu6AMNfSGGuZeHj0hn9intRhH8RZ7nMa4oAH/BC6gI4CHjeB96LmC7dAn5OqfoVD7lo6P2LvJzSE3i/yVajmN4XWko45KH+24CHHVg7Hg6lkhrpx4VjYLki+u5uTE7zwOgfSVX8Ehxo/wBRYPwbv/2N96IKE5wR3F9OrnoVD+2v73L4sWOg3GE3n+N9XLNK3z7ptWcvkZDHmwI87BA/3n+k+Eb6k0X8hBuE7+KfFJP9I0Txwb1H6IEoKBCy3vL6gNfYywe8+8txf4Nc84zxTbIFUvLOrY/lfejiMvDPMv3DyQoMyO2UAAg8gk8O/8rFwFghRx/BxwQg4OFZMMjLmS7oZxn4vPsrmJSY+6M3qJ/AtXzWLlfEy6K/woWFqdpjDj/g/n5Kk5nkMNmwftwUQtcfXbny6NFlMNbW4P8fwb/DoAhss9BPWGl4fIbO2U95/wFD5w/8Glj3l+P+xi4uZdGifptkCwfBn3HoGaWPXVxmMJ8mIIe/600ZSy1mQEEAv3lgrq3pcIyBMTUF/4/+urZm4i8J9AefK9NZmTb9NX4NrPvL69XGM7T/+UitO374YYMU+7BKjzV4fb+c8P6PzMcT6OFXk/kkMvV9EFAK5Mpm4jb27JhoIgpFZdZuJ0xUcdzLEgAY/2AqMul9Bn7lRz4iyrm/3NJJv4FitEa9uMI5/zykfj1QfuyrPYSf/uK/LcMnABGBRrX4n3cJNqDAROH1xLv/FPFVDI8AELxh/ZvuKvuNhor4gQrG/RUq3J9jdo7Ur3ARZ0A0XjB7vO/uiD3DTO7bKVTzd6kPhi0g9eDBH0YfpzKU8sh9/+CwWQifgd+M4I9II8INg8d7rWGv4/0Djs6pwEJ2KH7RqsSRbC2K8MdWavUOf3fD2/sV8d4Jo/bYww8X8eZZAYr9ZC/6OuPwfXrJI0HDKfz2IwWmdt3/GX2Ir3ccCv/CM6bj/RvuGzWc6sOTrnj7zy2+cQf5HTmjM3pc6ZRN8uSjvO+5uMw7z3LfTSndZ1SEej+J3D3FmoFfZ3IHPVMxk+aGd9NobRDWctyfsRTk9CX52Tj4vOpDk3rur+hQ4/u9nVv13sAWn6D0KO/7Li7Dch+E7wZxua6uWwXFenbrAXTL8N0uvNAxHr6XhdETkINV9cGtZ5bSd4up5FWFzRdVH36afs6J536i/Dp3LMR1XoLSo0qfcXGZIX6Rp1Riv8sCgCDs6G6Xv09C/p256wAEAK5qecB+5kIln+bguD+4Fs/9FQIKVPl1aFZLld4K/zTmfdVdC/an5tQeJQD3YRqyHs5ObqWFwTaZoXcX24MPqj5EV+L+itxPTH+nveGPqz3zq8Lm4yojaZNYXu3JCdCFrnQGLwgzg7tmu6a67LNy8BLVhx/GzCPEUklvh/YfKFnEqd9ytzDC0TPeXoAADO8CkRnsixC2/eBXV3z86gM5eJnqY/GLGDA0q43pP4EvrvWdETYf8X5T+mUAQe2FEKD5C5e05osneN2HZzV/aXYCn5KpPvQwcv9E7m+cQXlteoFJNq5ipTcuoEe8zx1d5l1npd+i4wig8g5igjd5BNOHDODCqR3Ay1QffhbhF7+AQJpbhDdq78FKT5sXHoS8H0BAXyWqPYKbjlrqgeuu8c/KNl/YfjDxmus+SNW8iaSvCao+SjsJ95ObPsWwfrX4Vgsf4YIDKH33ioncsiC1ZbxfeXWWGf8RtWVGhj4tNnjQW/9hZ5F+8jWo+vAq4bW/QDiVxL3COrVPa1KlBw1edWcN+uZwCG+TqD2g+MkqdCnJRJOHjrGAPclNIvsqY0D1tdAawVph1bSIo73yw7fg/LQOe1Efluc34RgQvEzZptReS4+kBz9QcoqHHTQqWFq8lvCZqPr0AbRIF5XDMdf6yR/wTR95q/YFEuAjj8B78POU96kOch8LW2RK9qTTd7NatlhzicDbdvsP38ooXSoJUmXsMVMDhbl/HvUdwCQgYT+J8iMRrvIu/NX5Oz+XrTLRAL790XwsLFGm9kqVtigS5svlvTm7XveIAP4A/ja3t/y5wwe3JKQWVV/LfswEvYjEB1B+vjMPt3S3jONeQfj4Fnv2Wffu6jMHeZxV8d5S84ktqCf9t+CO1CSmKPvIUlEpa87bh9t7c/XROvgPAH/4VtPKSrH9V6/1H4O0rvwmPJK2nzKL+4sAAApDSURBVHj46e2mKvK3nWeru924oaMS+ExHD43ta320+4fVzfO+e74unk/zZvAT7B1Yn1yizuarZa369PPnpwWtXMWvZO5UyB8Nsr+o+mBDae/WE5X99Ksq+T56yTUQ9zoK9Dulhr+H/l090IIiqPY6sb7XNQvHH/J5g/lrUWrFMSOo/QXVB52JulfzoBKJJ/beCcS9poNdmIn14wU6duoB20Si9jqwPmR+R2yvQ0a24yffJewvqD7cXZEGvYjsnw92XhLiXkqg1W/2GXdnT11Bkkrov/JK3I0wO4zFMGnIOusmDaPT3stszBJ/1nB7RXrdm97texYgeDbHoj/07ijnSDo+ScvZ6ESk+xu/GlEWlyoRvhOqJ44CbcCAODrq/JFNYAmK7C+qPtxhMD3IBj0apJ9VruqftAIT95rAci+bLzv5F4t4b6xuhvdVNR1sfiZRezW5DyKC0NfLIvryeqSvSutnA68UeAbr0jQO+nDCL5dbfKE4ZSxmc0zca8vIQc1wdDh9g97ppYIP31tS6WVK/uiLai8C6+NhvhSa6zlRP/kcYH9B9RGT0n6Mt3+QFX6wXcON6atDUK/n/KTPRlHT1hc2JigtkGwglj+psU/L4ItqLxLrk0fvMgoAiPy70b/2LrB/6SZ/+Jmr437QA/fyo4gnNhbWNc1LeF9dZNQgPghU8BGl791B50RfS2BEafApDD+jALLOUowHxeBajZVH1J2iN75pSxcs/NhAb8+i9BNluIVTYZczeNUVsfVXQqaG4nwc25xUiAIwlBhflTYlL2WDiLTVmnfnlxV+ET7Jh4UjJ/gY7ue3PyD4O/h63NA3cU+Q/NBmjIde1wKin/mxt/letwPq9uEmBclO6Kc5wccYvLZk+wM+aEkefQuBkoA3aY31CArPe2RSRC/ffFs0fInw0zoVuPCCz/OdYBON4PZLzJ5SnK2E98i1OATbDDh9nNnjXwFmnHSZ8AsbvOBjynloHwF++wNWCLT5I8OJC18P2vy8svE2n+n0Qa/1Y+FXbJ/lwlU9VPAxFR1e9xl++wNWSKr06XTg67qeEaN/n4Iez1np5v/OwB+MIfzyOObRzSp9MguFz+l+mccb1fZpC9+cPF4eGGtlMkz14Iegv8spfS+KZrNlWDTiiyMduXboecHHFfF63C90vZaEIGQev8ykRbXemkxY6Oa+YzjLsMnjVCuBSSALdnGS1t98tssNtXujCL91TvBxh99rPSVsvyTFJzF/9CWJZYOukTs8fBilNs3EPS3nt1lFJOj8In/z3zHL9pI9WPi1+yDpDWSJc9ltL1GJOghJdL8uyfHVfhMCsMDJB3ZtoBiD3X2Ce3Lp7sv1nJaHH5Vjb+EO/CSJKqa4zJkXP7e9Gm+VLe7HOe42KX5c2dG3280M7xh5hi+//dIAtC+R8IfqBt4aSet6wtT50D2Mexngn8HYhLivG45mVUkAyNpm4sH1P2Vv4Ywsf/O9Fkd8mne3r4Pww4Kv2s0NKgB87ue3P6j8U8T8hdDHplDXT9jwNm+8f//+rjf29/EVA+Xg7r2DggMjfhB31sgrfYUssNDqHdDzkQ5m8ynvi0nuanvhRwSfUNTk4Xc9+HaGU/4BSwyZv2ZrbMp7An3PL6coSpWMAhjU5oe4cwB1wdIc53j95fv9/f+12M23T2ToeZWv+6tzeaHncf+d9sIPCz7j+bzQkfei4PaBMcVUOEmUP1zcHHNy0zb6RHAuGxgEtZa7fu/9/tLkJhQAQAoMbA/5uRB7TpbgZFV+JuFnTT1nj89wNxrzz9vm+EhVU9KwlFWBArjN/g6bnBloeSwgUf7Q/OUu0NcBV2vJocA4uHdtf2lpM4FQe/nAVtoeZdDL0nu+ys9kWlx7PdQUSe0SsK8qFuG2EOF36Efg8lZ1dT7Qlddlb8QDAowRAshLHEoprl/gdvFgyZSOYBaU7xaYltaPUJWfyYzxzfVQoIPv3Du/WrX8YHeI8Fsv9jEhWIECED/L/fhVY/gMhNT3fGJyeXZ6KaD4wgf7Djto6qY8lQ9kq7gm1OxpMAx70igXQ7h/YnHLKbMUKJef73b7FqAX9GAGFgK6vPToJvvNyKm2CVxu85nyB7t+U146pQtHng4Y6PAsve7d531lDruz1baydXqryFLA8CkABGDzsR14HRICUuUP8P/B0ivy3rObX/9DWjwDVL5w5D0ua9LcHsBe5rF0wB5CAQtT4KIf9BAIMJaR5vkB/l8Z/GMRmZ/d/Pqv8nlfmcKR9+Cfd7suYuwWgyKXt5wXka+zTL9wrLwfijX6NESBrnOSZmjopWOS9BvapY/ME1HPPoP+o5SrSpXAkfeeONeFsGt9X4qdUkDjKFCAFFBl3I8J8Ke8wqv2p48/UL0iHbpf+yI19uDm/xm6jMcqxF7gsFtxsVMKWCIFfk3XZaUZcKlSAc3hb1+94vG+N38Y+tInORPadj39awD71cgX2IJj42pZoMDTbTkF7LmQ+sbaidxXCEPv2+4yUxfNGGjIRrBvPxWwF/4KdkqBQoACcxIK1D/K2R+Yv1JXsdPmy01dyPofg51I7fqciF1T/jp2SgFFC1BgVKCAbYdV9/rmb/viJW7z5aYunC4VePGoiF05Pew+BZgiAKPqBHgglFl981csDpHAJ+osxNRNcYfJ23enymE3Dk8VO6HAYV6gwFtAAcawq/8RsmLf/MUfrG8zaJNeuakL52JMKbsOsL8VsGe/BnZKgZxIgWWfAnY6rP64RM1fe6DDIL9WlzmRaKYK5SS7Pjq3zGHPKlruMNplvS8ePYdJjfn4VZalQJjyF83fjiPE1E15Kh/uO8TOLERxjhe+MnZCgYVjR+FePLR8gigQumm8+dsRvdzUxWyEsJ8sDzn8Jnwj7CEU0AAFRuuhyh+pqzBTTRh2iKkLB1D59VGAXWDAoW+JnVJgiGc+SIH6x/CrFx/T9TCT0YcOdjYdjr70sR7EfvTtsVMKHAkUOF4eqVVCOLdS+/Trnyd2XVrRjEt77ZM/f/1UC3u+UhtZPmaxGxB72O2EbzJuQAowwjffD0fv+IXZ2Znh4ZERDksJ3vK4+fHPuTpPA1TUPPfnx5vw1gZ3Ibg2MjI8PDM7e2G8F02cZ7EXjxa/K3ZCgcUjpxCoVOyFAy25PwlpMUNpUQJEKP3x8YQcBcTuJx//AP+IkCPEMzOzFy4k8dNoInF2o1A8+Dtgx+PG4oGEAlJaQMaYmZn5xz/+AY7C3OjoY8Du4C8zEPF4bxvELHbnYDFqL4ZvNCYWr7elQJAY+apl5XKWVc13BMxjX/+7YcdjYnHdsaxCVckbRjZQJCwduYi/ljWMvFItWNbfFTseExvTiwuHV7cOjhXH0SyrLw4tJIgLfRbMfCnHB1tXDxcWpzf+xtiFMXFjAxLj6ov1IwPQQrPKBQUQI5wWuSza4rKlAcTG0fqLqxDwxo3/dyCHjokbPYgxXmwd5RzIGGXMGIip8RY7uaOtF2iLe/5/QNxmTPRsEGIQnt7o+T6A/y+mMvzevb/7EgAAAABJRU5ErkJggg==;fontSize=9;" parent="XQOPoHDsZ4K9HdGl6XsR-51" vertex="1">
          <mxGeometry x="10.02" y="53" width="41.69" height="32.5" as="geometry" />
        </mxCell>
        <mxCell id="XQOPoHDsZ4K9HdGl6XsR-54" style="edgeStyle=orthogonalEdgeStyle;rounded=0;orthogonalLoop=1;jettySize=auto;html=1;" parent="1" source="XQOPoHDsZ4K9HdGl6XsR-43" target="XQOPoHDsZ4K9HdGl6XsR-49" edge="1">
          <mxGeometry relative="1" as="geometry">
            <Array as="points" />
            <mxPoint x="1129.5" y="1560" as="targetPoint" />
          </mxGeometry>
        </mxCell>
        <mxCell id="XQOPoHDsZ4K9HdGl6XsR-55" style="edgeStyle=orthogonalEdgeStyle;rounded=0;orthogonalLoop=1;jettySize=auto;html=1;entryX=1;entryY=0.75;entryDx=0;entryDy=0;entryPerimeter=0;" parent="1" source="XQOPoHDsZ4K9HdGl6XsR-42" target="XQOPoHDsZ4K9HdGl6XsR-49" edge="1">
          <mxGeometry relative="1" as="geometry" />
        </mxCell>
        <mxCell id="XQOPoHDsZ4K9HdGl6XsR-56" value="BD&lt;br&gt;Contable" style="shape=cylinder3;whiteSpace=wrap;html=1;boundedLbl=1;backgroundOutline=1;size=15;" parent="1" vertex="1">
          <mxGeometry x="642" y="1752.38" width="60" height="80" as="geometry" />
        </mxCell>
        <mxCell id="XQOPoHDsZ4K9HdGl6XsR-57" style="edgeStyle=orthogonalEdgeStyle;rounded=0;orthogonalLoop=1;jettySize=auto;html=1;entryX=0.5;entryY=0;entryDx=0;entryDy=0;entryPerimeter=0;exitX=0;exitY=0.5;exitDx=0;exitDy=0;exitPerimeter=0;" parent="1" source="XQOPoHDsZ4K9HdGl6XsR-47" target="XQOPoHDsZ4K9HdGl6XsR-56" edge="1">
          <mxGeometry relative="1" as="geometry" />
        </mxCell>
        <mxCell id="XQOPoHDsZ4K9HdGl6XsR-58" style="edgeStyle=orthogonalEdgeStyle;rounded=0;orthogonalLoop=1;jettySize=auto;html=1;endArrow=none;endFill=0;entryX=0.5;entryY=1;entryDx=0;entryDy=0;entryPerimeter=0;" parent="1" source="XQOPoHDsZ4K9HdGl6XsR-59" target="XQOPoHDsZ4K9HdGl6XsR-72" edge="1">
          <mxGeometry relative="1" as="geometry">
            <mxPoint x="1098" y="1391" as="targetPoint" />
          </mxGeometry>
        </mxCell>
        <mxCell id="XQOPoHDsZ4K9HdGl6XsR-59" value="VPN" style="outlineConnect=0;dashed=0;verticalLabelPosition=bottom;verticalAlign=top;align=center;html=1;shape=mxgraph.aws3.vpn_gateway;fillColor=#F58534;gradientColor=none;spacingLeft=100;spacingTop=-35;" parent="1" vertex="1">
          <mxGeometry x="963" y="1516" width="50" height="50" as="geometry" />
        </mxCell>
        <mxCell id="XQOPoHDsZ4K9HdGl6XsR-60" value="DB Subnet 3b" style="points=[[0,0],[0.25,0],[0.5,0],[0.75,0],[1,0],[1,0.25],[1,0.5],[1,0.75],[1,1],[0.75,1],[0.5,1],[0.25,1],[0,1],[0,0.75],[0,0.5],[0,0.25]];outlineConnect=0;gradientColor=none;html=1;whiteSpace=wrap;fontSize=12;fontStyle=0;container=1;pointerEvents=0;collapsible=0;recursiveResize=0;shape=mxgraph.aws4.group;grIcon=mxgraph.aws4.group_security_group;grStroke=0;strokeColor=#147EBA;fillColor=#E6F2F8;verticalAlign=top;align=left;spacingLeft=30;fontColor=#147EBA;dashed=0;" parent="1" vertex="1">
          <mxGeometry x="968" y="469" width="274" height="179" as="geometry" />
        </mxCell>
        <mxCell id="XQOPoHDsZ4K9HdGl6XsR-61" value="Amazon Aurora&lt;br style=&quot;border-color: var(--border-color); color: rgb(35, 47, 62);&quot;&gt;&lt;span style=&quot;color: rgb(35, 47, 62);&quot;&gt;Serverless V2&lt;/span&gt;" style="sketch=0;points=[[0,0,0],[0.25,0,0],[0.5,0,0],[0.75,0,0],[1,0,0],[0,1,0],[0.25,1,0],[0.5,1,0],[0.75,1,0],[1,1,0],[0,0.25,0],[0,0.5,0],[0,0.75,0],[1,0.25,0],[1,0.5,0],[1,0.75,0]];outlineConnect=0;fillColor=#dae8fc;strokeColor=#6c8ebf;dashed=0;verticalLabelPosition=bottom;verticalAlign=top;align=center;html=1;fontSize=12;fontStyle=0;aspect=fixed;shape=mxgraph.aws4.resourceIcon;resIcon=mxgraph.aws4.aurora;" parent="XQOPoHDsZ4K9HdGl6XsR-60" vertex="1">
          <mxGeometry x="102" y="64.5" width="60" height="60" as="geometry" />
        </mxCell>
        <mxCell id="XQOPoHDsZ4K9HdGl6XsR-62" value="DB Subnet 3a" style="points=[[0,0],[0.25,0],[0.5,0],[0.75,0],[1,0],[1,0.25],[1,0.5],[1,0.75],[1,1],[0.75,1],[0.5,1],[0.25,1],[0,1],[0,0.75],[0,0.5],[0,0.25]];outlineConnect=0;gradientColor=none;html=1;whiteSpace=wrap;fontSize=12;fontStyle=0;container=1;pointerEvents=0;collapsible=0;recursiveResize=0;shape=mxgraph.aws4.group;grIcon=mxgraph.aws4.group_security_group;grStroke=0;strokeColor=#147EBA;fillColor=#E6F2F8;verticalAlign=top;align=left;spacingLeft=30;fontColor=#147EBA;dashed=0;" parent="1" vertex="1">
          <mxGeometry x="594.5" y="470.5" width="274" height="176" as="geometry" />
        </mxCell>
        <mxCell id="XQOPoHDsZ4K9HdGl6XsR-63" value="Amazon Aurora&lt;br&gt;Serverless V2" style="sketch=0;points=[[0,0,0],[0.25,0,0],[0.5,0,0],[0.75,0,0],[1,0,0],[0,1,0],[0.25,1,0],[0.5,1,0],[0.75,1,0],[1,1,0],[0,0.25,0],[0,0.5,0],[0,0.75,0],[1,0.25,0],[1,0.5,0],[1,0.75,0]];outlineConnect=0;fontColor=#232F3E;fillColor=#3025d0;strokeColor=#ffffff;dashed=0;verticalLabelPosition=bottom;verticalAlign=top;align=center;html=1;fontSize=12;fontStyle=0;aspect=fixed;shape=mxgraph.aws4.resourceIcon;resIcon=mxgraph.aws4.aurora;" parent="XQOPoHDsZ4K9HdGl6XsR-62" vertex="1">
          <mxGeometry x="104.5" y="63" width="60" height="60" as="geometry" />
        </mxCell>
        <mxCell id="XQOPoHDsZ4K9HdGl6XsR-64" value="Availability Zone B" style="fillColor=none;strokeColor=#147EBA;dashed=1;verticalAlign=top;fontStyle=0;fontColor=#147EBA;whiteSpace=wrap;html=1;" parent="1" vertex="1">
          <mxGeometry x="948" y="441" width="304" height="810" as="geometry" />
        </mxCell>
        <mxCell id="XQOPoHDsZ4K9HdGl6XsR-65" value="S3" style="sketch=0;points=[[0,0,0],[0.25,0,0],[0.5,0,0],[0.75,0,0],[1,0,0],[0,1,0],[0.25,1,0],[0.5,1,0],[0.75,1,0],[1,1,0],[0,0.25,0],[0,0.5,0],[0,0.75,0],[1,0.25,0],[1,0.5,0],[1,0.75,0]];outlineConnect=0;fontColor=#232F3E;gradientColor=#60A337;gradientDirection=north;fillColor=#277116;strokeColor=#ffffff;dashed=0;verticalLabelPosition=bottom;verticalAlign=top;align=center;html=1;fontSize=12;fontStyle=0;aspect=fixed;shape=mxgraph.aws4.resourceIcon;resIcon=mxgraph.aws4.s3;" parent="1" vertex="1">
          <mxGeometry x="887" y="209" width="50" height="50" as="geometry" />
        </mxCell>
        <mxCell id="XQOPoHDsZ4K9HdGl6XsR-66" value="" style="rounded=0;arcSize=10;dashed=1;strokeColor=#0d62d9;fillColor=none;strokeWidth=2;" parent="1" vertex="1">
          <mxGeometry x="561" y="511" width="702" height="128" as="geometry" />
        </mxCell>
        <mxCell id="XQOPoHDsZ4K9HdGl6XsR-67" value="Glue" style="sketch=0;points=[[0,0,0],[0.25,0,0],[0.5,0,0],[0.75,0,0],[1,0,0],[0,1,0],[0.25,1,0],[0.5,1,0],[0.75,1,0],[1,1,0],[0,0.25,0],[0,0.5,0],[0,0.75,0],[1,0.25,0],[1,0.5,0],[1,0.75,0]];outlineConnect=0;fontColor=#232F3E;fillColor=#8C4FFF;strokeColor=#ffffff;dashed=0;verticalLabelPosition=bottom;verticalAlign=top;align=center;html=1;fontSize=12;fontStyle=0;aspect=fixed;shape=mxgraph.aws4.resourceIcon;resIcon=mxgraph.aws4.glue;spacingTop=-71;" parent="1" vertex="1">
          <mxGeometry x="887" y="306" width="50" height="50" as="geometry" />
        </mxCell>
        <mxCell id="XQOPoHDsZ4K9HdGl6XsR-68" style="edgeStyle=orthogonalEdgeStyle;rounded=0;orthogonalLoop=1;jettySize=auto;html=1;exitX=0.5;exitY=0;exitDx=0;exitDy=0;entryX=0.5;entryY=1;entryDx=0;entryDy=0;entryPerimeter=0;" parent="1" source="XQOPoHDsZ4K9HdGl6XsR-66" target="XQOPoHDsZ4K9HdGl6XsR-67" edge="1">
          <mxGeometry relative="1" as="geometry" />
        </mxCell>
        <mxCell id="XQOPoHDsZ4K9HdGl6XsR-69" value="Amazon S3&lt;br&gt;Inteligent Tiering" style="sketch=0;outlineConnect=0;fontColor=#232F3E;gradientColor=none;fillColor=#7AA116;strokeColor=none;dashed=0;verticalLabelPosition=bottom;verticalAlign=top;align=center;html=1;fontSize=12;fontStyle=0;aspect=fixed;pointerEvents=1;shape=mxgraph.aws4.intelligent_tiering;" parent="1" vertex="1">
          <mxGeometry x="1013" y="305" width="50" height="52" as="geometry" />
        </mxCell>
        <mxCell id="XQOPoHDsZ4K9HdGl6XsR-70" value="Kafka SaaS" style="verticalLabelPosition=bottom;html=1;verticalAlign=top;strokeWidth=1;align=center;outlineConnect=0;dashed=0;outlineConnect=0;shape=mxgraph.aws3d.dataServer;strokeColor=#5E5E5E;aspect=fixed;fontStyle=0;fontSize=14;" parent="1" vertex="1">
          <mxGeometry x="545" y="1335" width="80.07" height="69" as="geometry" />
        </mxCell>
        <mxCell id="XQOPoHDsZ4K9HdGl6XsR-71" style="edgeStyle=orthogonalEdgeStyle;rounded=0;orthogonalLoop=1;jettySize=auto;html=1;" parent="1" source="XQOPoHDsZ4K9HdGl6XsR-36" target="XQOPoHDsZ4K9HdGl6XsR-70" edge="1">
          <mxGeometry relative="1" as="geometry">
            <Array as="points">
              <mxPoint x="668" y="1418" />
              <mxPoint x="668" y="1370" />
            </Array>
          </mxGeometry>
        </mxCell>
        <mxCell id="XQOPoHDsZ4K9HdGl6XsR-72" value="AWS Transit&lt;br&gt;Gateway" style="sketch=0;points=[[0,0,0],[0.25,0,0],[0.5,0,0],[0.75,0,0],[1,0,0],[0,1,0],[0.25,1,0],[0.5,1,0],[0.75,1,0],[1,1,0],[0,0.25,0],[0,0.5,0],[0,0.75,0],[1,0.25,0],[1,0.5,0],[1,0.75,0]];outlineConnect=0;fontColor=#232F3E;fillColor=#8C4FFF;strokeColor=#ffffff;dashed=0;verticalLabelPosition=bottom;verticalAlign=top;align=center;html=1;fontSize=12;fontStyle=0;aspect=fixed;shape=mxgraph.aws4.resourceIcon;resIcon=mxgraph.aws4.transit_gateway;" parent="1" vertex="1">
          <mxGeometry x="891" y="1313" width="50" height="50" as="geometry" />
        </mxCell>
        <mxCell id="XQOPoHDsZ4K9HdGl6XsR-73" value="VPC SaaS" style="points=[[0,0],[0.25,0],[0.5,0],[0.75,0],[1,0],[1,0.25],[1,0.5],[1,0.75],[1,1],[0.75,1],[0.5,1],[0.25,1],[0,1],[0,0.75],[0,0.5],[0,0.25]];outlineConnect=0;gradientColor=none;html=1;whiteSpace=wrap;fontSize=12;fontStyle=0;container=0;pointerEvents=0;collapsible=0;recursiveResize=0;shape=mxgraph.aws4.group;grIcon=mxgraph.aws4.group_vpc;strokeColor=#248814;fillColor=none;verticalAlign=top;align=left;spacingLeft=30;fontColor=#AAB7B8;dashed=0;movable=1;resizable=1;rotatable=1;deletable=1;editable=1;locked=0;connectable=1;" parent="1" vertex="1">
          <mxGeometry x="517" y="1304" width="137" height="139" as="geometry" />
        </mxCell>
        <mxCell id="XQOPoHDsZ4K9HdGl6XsR-74" value="Availability Zone A" style="fillColor=none;strokeColor=#147EBA;dashed=1;verticalAlign=top;fontStyle=0;fontColor=#147EBA;whiteSpace=wrap;html=1;" parent="1" vertex="1">
          <mxGeometry x="575" y="439" width="306" height="810" as="geometry" />
        </mxCell>
        <mxCell id="XQOPoHDsZ4K9HdGl6XsR-75" value="Private Subnet 1a" style="points=[[0,0],[0.25,0],[0.5,0],[0.75,0],[1,0],[1,0.25],[1,0.5],[1,0.75],[1,1],[0.75,1],[0.5,1],[0.25,1],[0,1],[0,0.75],[0,0.5],[0,0.25]];outlineConnect=0;gradientColor=none;html=1;whiteSpace=wrap;fontSize=12;fontStyle=0;container=1;pointerEvents=0;collapsible=0;recursiveResize=0;shape=mxgraph.aws4.group;grIcon=mxgraph.aws4.group_security_group;grStroke=0;strokeColor=#147EBA;fillColor=#E6F2F8;verticalAlign=top;align=left;spacingLeft=30;fontColor=#147EBA;dashed=0;" parent="1" vertex="1">
          <mxGeometry x="592.5" y="682.5" width="276" height="358" as="geometry" />
        </mxCell>
        <mxCell id="XQOPoHDsZ4K9HdGl6XsR-76" value="Private Subnet 1b" style="points=[[0,0],[0.25,0],[0.5,0],[0.75,0],[1,0],[1,0.25],[1,0.5],[1,0.75],[1,1],[0.75,1],[0.5,1],[0.25,1],[0,1],[0,0.75],[0,0.5],[0,0.25]];outlineConnect=0;gradientColor=none;html=1;whiteSpace=wrap;fontSize=12;fontStyle=0;container=1;pointerEvents=0;collapsible=0;recursiveResize=0;shape=mxgraph.aws4.group;grIcon=mxgraph.aws4.group_security_group;grStroke=0;strokeColor=#147EBA;fillColor=#E6F2F8;verticalAlign=top;align=left;spacingLeft=30;fontColor=#147EBA;dashed=0;" parent="1" vertex="1">
          <mxGeometry x="968" y="685" width="276" height="358" as="geometry" />
        </mxCell>
        <mxCell id="XQOPoHDsZ4K9HdGl6XsR-77" value="VPC" style="points=[[0,0],[0.25,0],[0.5,0],[0.75,0],[1,0],[1,0.25],[1,0.5],[1,0.75],[1,1],[0.75,1],[0.5,1],[0.25,1],[0,1],[0,0.75],[0,0.5],[0,0.25]];outlineConnect=0;gradientColor=none;html=1;whiteSpace=wrap;fontSize=12;fontStyle=0;container=0;pointerEvents=0;collapsible=0;recursiveResize=0;shape=mxgraph.aws4.group;grIcon=mxgraph.aws4.group_vpc;strokeColor=#248814;fillColor=none;verticalAlign=top;align=left;spacingLeft=30;fontColor=#AAB7B8;dashed=0;movable=1;resizable=1;rotatable=1;deletable=1;editable=1;locked=0;connectable=1;" parent="1" vertex="1">
          <mxGeometry x="549" y="404" width="734" height="861" as="geometry" />
        </mxCell>
        <mxCell id="XQOPoHDsZ4K9HdGl6XsR-78" style="edgeStyle=orthogonalEdgeStyle;rounded=0;orthogonalLoop=1;jettySize=auto;html=1;exitX=0.5;exitY=1;exitDx=0;exitDy=0;exitPerimeter=0;" parent="1" edge="1">
          <mxGeometry relative="1" as="geometry">
            <mxPoint x="1003.5" y="789" as="targetPoint" />
            <mxPoint x="1003.5" y="789" as="sourcePoint" />
          </mxGeometry>
        </mxCell>
        <mxCell id="XQOPoHDsZ4K9HdGl6XsR-79" value="Auto Scaling group" style="points=[[0,0],[0.25,0],[0.5,0],[0.75,0],[1,0],[1,0.25],[1,0.5],[1,0.75],[1,1],[0.75,1],[0.5,1],[0.25,1],[0,1],[0,0.75],[0,0.5],[0,0.25]];outlineConnect=0;gradientColor=none;html=1;whiteSpace=wrap;fontSize=12;fontStyle=0;container=1;pointerEvents=0;collapsible=0;recursiveResize=0;shape=mxgraph.aws4.groupCenter;grIcon=mxgraph.aws4.group_auto_scaling_group;grStroke=1;strokeColor=#D86613;fillColor=none;verticalAlign=top;align=center;fontColor=#D86613;dashed=1;spacingTop=25;" parent="1" vertex="1">
          <mxGeometry x="565" y="772" width="701" height="132" as="geometry" />
        </mxCell>
        <mxCell id="XQOPoHDsZ4K9HdGl6XsR-80" value="" style="rounded=0;arcSize=10;dashed=1;strokeColor=#F59D56;fillColor=none;gradientColor=none;strokeWidth=2;" parent="1" vertex="1">
          <mxGeometry x="600" y="711" width="639" height="308" as="geometry" />
        </mxCell>
        <mxCell id="XQOPoHDsZ4K9HdGl6XsR-81" value="" style="sketch=0;points=[[0,0,0],[0.25,0,0],[0.5,0,0],[0.75,0,0],[1,0,0],[0,1,0],[0.25,1,0],[0.5,1,0],[0.75,1,0],[1,1,0],[0,0.25,0],[0,0.5,0],[0,0.75,0],[1,0.25,0],[1,0.5,0],[1,0.75,0]];outlineConnect=0;fontColor=#232F3E;fillColor=#ED7100;strokeColor=#ffffff;dashed=0;verticalLabelPosition=bottom;verticalAlign=top;align=center;html=1;fontSize=12;fontStyle=0;aspect=fixed;shape=mxgraph.aws4.resourceIcon;resIcon=mxgraph.aws4.fargate;" parent="1" vertex="1">
          <mxGeometry x="600" y="710" width="30" height="30" as="geometry" />
        </mxCell>
        <mxCell id="XQOPoHDsZ4K9HdGl6XsR-82" value="Security group" style="fillColor=none;strokeColor=#DD3522;verticalAlign=top;fontStyle=0;fontColor=#DD3522;whiteSpace=wrap;html=1;rounded=1;" parent="1" vertex="1">
          <mxGeometry x="614" y="747" width="223" height="174" as="geometry" />
        </mxCell>
        <mxCell id="XQOPoHDsZ4K9HdGl6XsR-83" value="" style="rounded=0;arcSize=10;dashed=1;strokeColor=#F59D56;fillColor=none;gradientColor=none;strokeWidth=2;" parent="1" vertex="1">
          <mxGeometry x="631" y="779" width="199" height="117" as="geometry" />
        </mxCell>
        <mxCell id="XQOPoHDsZ4K9HdGl6XsR-84" value="" style="sketch=0;points=[[0,0,0],[0.25,0,0],[0.5,0,0],[0.75,0,0],[1,0,0],[0,1,0],[0.25,1,0],[0.5,1,0],[0.75,1,0],[1,1,0],[0,0.25,0],[0,0.5,0],[0,0.75,0],[1,0.25,0],[1,0.5,0],[1,0.75,0]];outlineConnect=0;fontColor=#232F3E;fillColor=#ED7100;strokeColor=#ffffff;dashed=0;verticalLabelPosition=bottom;verticalAlign=top;align=center;html=1;fontSize=12;fontStyle=0;aspect=fixed;shape=mxgraph.aws4.resourceIcon;resIcon=mxgraph.aws4.ec2;" parent="1" vertex="1">
          <mxGeometry x="630" y="778" width="30" height="30" as="geometry" />
        </mxCell>
        <mxCell id="XQOPoHDsZ4K9HdGl6XsR-85" value="ECS&#xa;Fargate&#xa;Container" style="shape=image;verticalLabelPosition=bottom;labelBackgroundColor=none;verticalAlign=top;aspect=fixed;imageAspect=0;image=data:image/png,iVBORw0KGgoAAAANSUhEUgAAAEsAAABLCAMAAAAPkIrYAAAAAXNSR0IArs4c6QAAAARnQU1BAACxjwv8YQUAAAINUExURQAAAP8AAP//AP+AAONVANFdAOhdANVjDtNZC9ZcCthYCtFbCdtbCc9YCNJaCNFcB9JZBs5bBtBZBtRXBdNYBdRbBdlbCtZbBdJZBNNYBNdcCdRbCdJZCNVZCNVdCNVbCNJaCNdXB9RaB9VcB9VbB9ZaB9NcB9NbB9VcB9JZBtNaBtVbBthbBtNZBtNcBthcBtRaBtxdBtxgBt9gBuJgBuJgCeJjBuJjCeVjBuVjCdVbCNRbCNleCNNbCNRaB9NbB9VbB9NcB9VbBtNbBtVbBtNaBtVcBtZbBtRaBtJbBtRbBtVbBtNaBtVaB9NaB9RbB9RcB9RbB9VbBtRbBtRbB9RaB9RcBtVcBtRbBt1eB9VcBtxdB9RbBtRbB9RbB9RbB9RaB9hdB9dcB9peB9ldB91fB95fB95gB9NaB9NaB9RaB9RbB9RcB9VbCNRcB9RbB9RcBtRcB9NbB9RbB9NbB9RbB9NbB9NbB9VcBtVbBtRbB9RbB9RbBtRcB9NbB9dcB9ddBthdBtpeB9teB9tfB9xeB9xfB91fB95fB95gB99fB99gB+BgB+FgB+FhB+NhB+NhCONiB+NiCORiB+RiCOViB+ViCOpkB+plB+tlB+tmB+xlB+xmB+1mB+1nB+5mB+5nB/FnB/FnCfFoB/FoCfJoB/NoB/NoCfNpB/NpCfRoB/RoCfRpB/VpB/VpCYKnjQEAAAB+dFJOUwABAQIJCwsSFxkaHBwgIicoKisvNDU1ODk6Ojs/QkJDREZHSElKS0xOUFJUVFZWVlhYWFhYWFhYWFhcX19icXNzdXh5eXp6e3yBgYSFi5GUmZqipausrKytra+vsLC2t7i4ubm6urq6u76+vsPMzs/R0dLV19fb3t7f5ebz+OdsBUsAAAAJcEhZcwAAFxEAABcRAcom8z8AAAGOSURBVFhH7ZbFU0JRGEdRDOzubmwFu7sTO1ERsbvjYcLTZ6KiqCh2+zfKN3N1mJHVe6MzztyzOd/8FmdzN5eFwWAwf4xJdFoqM9IijFBLcK48YoZSVY1aMyRB7jJBTmxNoNakXDoywIQxKTn81SJJd3TSw3eb0ml5o5MewZRuywed9Aj52fJITLIF2yUnuILN+PwAsHEkLxze3CCIF8uBwSM+wQZsnxznAtbTEj6/F4JLPp5awVyNZg5sLTtbsdSavXCp8oeh4/EtD1z28dAI1tOqVRxngXOVBzXgQIoaBVstyRbNtWZPbW54wVC3f5gBLlLuCcC4hVu4hVu4hVu49a9b7XcvBeDi19tmMFetngVbr58uW2jNnr848YNBeHOfAy59vW4A62nliSVh4CiJOBvs2C2qBHPauupNtTasEnU6wJAv7gkFx0jEmWA9Ldr8WmvLGZ308NT9r66Wp6TTJ6Vi7bs1LScoxT59FBRBjqPWkHoHffrpsnM1iFpuLX29zOhvckItDAaD+RtYrE8QFNP8P1ljtAAAAABJRU5ErkJggg==;fontSize=10;spacingTop=-10;" parent="1" vertex="1">
          <mxGeometry x="656" y="802" width="45" height="45" as="geometry" />
        </mxCell>
        <mxCell id="XQOPoHDsZ4K9HdGl6XsR-86" value="ECS&#xa;Fargate&#xa;Container" style="shape=image;verticalLabelPosition=bottom;labelBackgroundColor=none;verticalAlign=top;aspect=fixed;imageAspect=0;image=data:image/png,iVBORw0KGgoAAAANSUhEUgAAAEsAAABLCAMAAAAPkIrYAAAAAXNSR0IArs4c6QAAAARnQU1BAACxjwv8YQUAAAINUExURQAAAP8AAP//AP+AAONVANFdAOhdANVjDtNZC9ZcCthYCtFbCdtbCc9YCNJaCNFcB9JZBs5bBtBZBtRXBdNYBdRbBdlbCtZbBdJZBNNYBNdcCdRbCdJZCNVZCNVdCNVbCNJaCNdXB9RaB9VcB9VbB9ZaB9NcB9NbB9VcB9JZBtNaBtVbBthbBtNZBtNcBthcBtRaBtxdBtxgBt9gBuJgBuJgCeJjBuJjCeVjBuVjCdVbCNRbCNleCNNbCNRaB9NbB9VbB9NcB9VbBtNbBtVbBtNaBtVcBtZbBtRaBtJbBtRbBtVbBtNaBtVaB9NaB9RbB9RcB9RbB9VbBtRbBtRbB9RaB9RcBtVcBtRbBt1eB9VcBtxdB9RbBtRbB9RbB9RbB9RaB9hdB9dcB9peB9ldB91fB95fB95gB9NaB9NaB9RaB9RbB9RcB9VbCNRcB9RbB9RcBtRcB9NbB9RbB9NbB9RbB9NbB9NbB9VcBtVbBtRbB9RbB9RbBtRcB9NbB9dcB9ddBthdBtpeB9teB9tfB9xeB9xfB91fB95fB95gB99fB99gB+BgB+FgB+FhB+NhB+NhCONiB+NiCORiB+RiCOViB+ViCOpkB+plB+tlB+tmB+xlB+xmB+1mB+1nB+5mB+5nB/FnB/FnCfFoB/FoCfJoB/NoB/NoCfNpB/NpCfRoB/RoCfRpB/VpB/VpCYKnjQEAAAB+dFJOUwABAQIJCwsSFxkaHBwgIicoKisvNDU1ODk6Ojs/QkJDREZHSElKS0xOUFJUVFZWVlhYWFhYWFhYWFhcX19icXNzdXh5eXp6e3yBgYSFi5GUmZqipausrKytra+vsLC2t7i4ubm6urq6u76+vsPMzs/R0dLV19fb3t7f5ebz+OdsBUsAAAAJcEhZcwAAFxEAABcRAcom8z8AAAGOSURBVFhH7ZbFU0JRGEdRDOzubmwFu7sTO1ERsbvjYcLTZ6KiqCh2+zfKN3N1mJHVe6MzztyzOd/8FmdzN5eFwWAwf4xJdFoqM9IijFBLcK48YoZSVY1aMyRB7jJBTmxNoNakXDoywIQxKTn81SJJd3TSw3eb0ml5o5MewZRuywed9Aj52fJITLIF2yUnuILN+PwAsHEkLxze3CCIF8uBwSM+wQZsnxznAtbTEj6/F4JLPp5awVyNZg5sLTtbsdSavXCp8oeh4/EtD1z28dAI1tOqVRxngXOVBzXgQIoaBVstyRbNtWZPbW54wVC3f5gBLlLuCcC4hVu4hVu4hVu49a9b7XcvBeDi19tmMFetngVbr58uW2jNnr848YNBeHOfAy59vW4A62nliSVh4CiJOBvs2C2qBHPauupNtTasEnU6wJAv7gkFx0jEmWA9Ldr8WmvLGZ308NT9r66Wp6TTJ6Vi7bs1LScoxT59FBRBjqPWkHoHffrpsnM1iFpuLX29zOhvckItDAaD+RtYrE8QFNP8P1ljtAAAAABJRU5ErkJggg==;fontSize=10;spacingTop=-10;" parent="1" vertex="1">
          <mxGeometry x="706.5" y="802" width="45" height="45" as="geometry" />
        </mxCell>
        <mxCell id="XQOPoHDsZ4K9HdGl6XsR-87" value="ECS&#xa;Fargate&#xa;Container" style="shape=image;verticalLabelPosition=bottom;labelBackgroundColor=none;verticalAlign=top;aspect=fixed;imageAspect=0;image=data:image/png,iVBORw0KGgoAAAANSUhEUgAAAEsAAABLCAMAAAAPkIrYAAAAAXNSR0IArs4c6QAAAARnQU1BAACxjwv8YQUAAAINUExURQAAAP8AAP//AP+AAONVANFdAOhdANVjDtNZC9ZcCthYCtFbCdtbCc9YCNJaCNFcB9JZBs5bBtBZBtRXBdNYBdRbBdlbCtZbBdJZBNNYBNdcCdRbCdJZCNVZCNVdCNVbCNJaCNdXB9RaB9VcB9VbB9ZaB9NcB9NbB9VcB9JZBtNaBtVbBthbBtNZBtNcBthcBtRaBtxdBtxgBt9gBuJgBuJgCeJjBuJjCeVjBuVjCdVbCNRbCNleCNNbCNRaB9NbB9VbB9NcB9VbBtNbBtVbBtNaBtVcBtZbBtRaBtJbBtRbBtVbBtNaBtVaB9NaB9RbB9RcB9RbB9VbBtRbBtRbB9RaB9RcBtVcBtRbBt1eB9VcBtxdB9RbBtRbB9RbB9RbB9RaB9hdB9dcB9peB9ldB91fB95fB95gB9NaB9NaB9RaB9RbB9RcB9VbCNRcB9RbB9RcBtRcB9NbB9RbB9NbB9RbB9NbB9NbB9VcBtVbBtRbB9RbB9RbBtRcB9NbB9dcB9ddBthdBtpeB9teB9tfB9xeB9xfB91fB95fB95gB99fB99gB+BgB+FgB+FhB+NhB+NhCONiB+NiCORiB+RiCOViB+ViCOpkB+plB+tlB+tmB+xlB+xmB+1mB+1nB+5mB+5nB/FnB/FnCfFoB/FoCfJoB/NoB/NoCfNpB/NpCfRoB/RoCfRpB/VpB/VpCYKnjQEAAAB+dFJOUwABAQIJCwsSFxkaHBwgIicoKisvNDU1ODk6Ojs/QkJDREZHSElKS0xOUFJUVFZWVlhYWFhYWFhYWFhcX19icXNzdXh5eXp6e3yBgYSFi5GUmZqipausrKytra+vsLC2t7i4ubm6urq6u76+vsPMzs/R0dLV19fb3t7f5ebz+OdsBUsAAAAJcEhZcwAAFxEAABcRAcom8z8AAAGOSURBVFhH7ZbFU0JRGEdRDOzubmwFu7sTO1ERsbvjYcLTZ6KiqCh2+zfKN3N1mJHVe6MzztyzOd/8FmdzN5eFwWAwf4xJdFoqM9IijFBLcK48YoZSVY1aMyRB7jJBTmxNoNakXDoywIQxKTn81SJJd3TSw3eb0ml5o5MewZRuywed9Aj52fJITLIF2yUnuILN+PwAsHEkLxze3CCIF8uBwSM+wQZsnxznAtbTEj6/F4JLPp5awVyNZg5sLTtbsdSavXCp8oeh4/EtD1z28dAI1tOqVRxngXOVBzXgQIoaBVstyRbNtWZPbW54wVC3f5gBLlLuCcC4hVu4hVu4hVu49a9b7XcvBeDi19tmMFetngVbr58uW2jNnr848YNBeHOfAy59vW4A62nliSVh4CiJOBvs2C2qBHPauupNtTasEnU6wJAv7gkFx0jEmWA9Ldr8WmvLGZ308NT9r66Wp6TTJ6Vi7bs1LScoxT59FBRBjqPWkHoHffrpsnM1iFpuLX29zOhvckItDAaD+RtYrE8QFNP8P1ljtAAAAABJRU5ErkJggg==;fontSize=10;spacingTop=-10;" parent="1" vertex="1">
          <mxGeometry x="756.5" y="802" width="45" height="45" as="geometry" />
        </mxCell>
        <mxCell id="XQOPoHDsZ4K9HdGl6XsR-88" value="Security group" style="fillColor=none;strokeColor=#DD3522;verticalAlign=top;fontStyle=0;fontColor=#DD3522;whiteSpace=wrap;html=1;rounded=1;" parent="1" vertex="1">
          <mxGeometry x="994.5" y="748" width="223" height="174" as="geometry" />
        </mxCell>
        <mxCell id="XQOPoHDsZ4K9HdGl6XsR-89" value="" style="rounded=0;arcSize=10;dashed=1;strokeColor=#F59D56;fillColor=none;gradientColor=none;strokeWidth=2;" parent="1" vertex="1">
          <mxGeometry x="1007.5" y="781" width="199" height="116" as="geometry" />
        </mxCell>
        <mxCell id="XQOPoHDsZ4K9HdGl6XsR-90" value="" style="sketch=0;points=[[0,0,0],[0.25,0,0],[0.5,0,0],[0.75,0,0],[1,0,0],[0,1,0],[0.25,1,0],[0.5,1,0],[0.75,1,0],[1,1,0],[0,0.25,0],[0,0.5,0],[0,0.75,0],[1,0.25,0],[1,0.5,0],[1,0.75,0]];outlineConnect=0;fontColor=#232F3E;fillColor=#ED7100;strokeColor=#ffffff;dashed=0;verticalLabelPosition=bottom;verticalAlign=top;align=center;html=1;fontSize=12;fontStyle=0;aspect=fixed;shape=mxgraph.aws4.resourceIcon;resIcon=mxgraph.aws4.ec2;" parent="1" vertex="1">
          <mxGeometry x="1006.5" y="778" width="30" height="30" as="geometry" />
        </mxCell>
        <mxCell id="XQOPoHDsZ4K9HdGl6XsR-91" value="ECS&#xa;Fargate&#xa;Container" style="shape=image;verticalLabelPosition=bottom;labelBackgroundColor=none;verticalAlign=top;aspect=fixed;imageAspect=0;image=data:image/png,iVBORw0KGgoAAAANSUhEUgAAAEsAAABLCAMAAAAPkIrYAAAAAXNSR0IArs4c6QAAAARnQU1BAACxjwv8YQUAAAINUExURQAAAP8AAP//AP+AAONVANFdAOhdANVjDtNZC9ZcCthYCtFbCdtbCc9YCNJaCNFcB9JZBs5bBtBZBtRXBdNYBdRbBdlbCtZbBdJZBNNYBNdcCdRbCdJZCNVZCNVdCNVbCNJaCNdXB9RaB9VcB9VbB9ZaB9NcB9NbB9VcB9JZBtNaBtVbBthbBtNZBtNcBthcBtRaBtxdBtxgBt9gBuJgBuJgCeJjBuJjCeVjBuVjCdVbCNRbCNleCNNbCNRaB9NbB9VbB9NcB9VbBtNbBtVbBtNaBtVcBtZbBtRaBtJbBtRbBtVbBtNaBtVaB9NaB9RbB9RcB9RbB9VbBtRbBtRbB9RaB9RcBtVcBtRbBt1eB9VcBtxdB9RbBtRbB9RbB9RbB9RaB9hdB9dcB9peB9ldB91fB95fB95gB9NaB9NaB9RaB9RbB9RcB9VbCNRcB9RbB9RcBtRcB9NbB9RbB9NbB9RbB9NbB9NbB9VcBtVbBtRbB9RbB9RbBtRcB9NbB9dcB9ddBthdBtpeB9teB9tfB9xeB9xfB91fB95fB95gB99fB99gB+BgB+FgB+FhB+NhB+NhCONiB+NiCORiB+RiCOViB+ViCOpkB+plB+tlB+tmB+xlB+xmB+1mB+1nB+5mB+5nB/FnB/FnCfFoB/FoCfJoB/NoB/NoCfNpB/NpCfRoB/RoCfRpB/VpB/VpCYKnjQEAAAB+dFJOUwABAQIJCwsSFxkaHBwgIicoKisvNDU1ODk6Ojs/QkJDREZHSElKS0xOUFJUVFZWVlhYWFhYWFhYWFhcX19icXNzdXh5eXp6e3yBgYSFi5GUmZqipausrKytra+vsLC2t7i4ubm6urq6u76+vsPMzs/R0dLV19fb3t7f5ebz+OdsBUsAAAAJcEhZcwAAFxEAABcRAcom8z8AAAGOSURBVFhH7ZbFU0JRGEdRDOzubmwFu7sTO1ERsbvjYcLTZ6KiqCh2+zfKN3N1mJHVe6MzztyzOd/8FmdzN5eFwWAwf4xJdFoqM9IijFBLcK48YoZSVY1aMyRB7jJBTmxNoNakXDoywIQxKTn81SJJd3TSw3eb0ml5o5MewZRuywed9Aj52fJITLIF2yUnuILN+PwAsHEkLxze3CCIF8uBwSM+wQZsnxznAtbTEj6/F4JLPp5awVyNZg5sLTtbsdSavXCp8oeh4/EtD1z28dAI1tOqVRxngXOVBzXgQIoaBVstyRbNtWZPbW54wVC3f5gBLlLuCcC4hVu4hVu4hVu49a9b7XcvBeDi19tmMFetngVbr58uW2jNnr848YNBeHOfAy59vW4A62nliSVh4CiJOBvs2C2qBHPauupNtTasEnU6wJAv7gkFx0jEmWA9Ldr8WmvLGZ308NT9r66Wp6TTJ6Vi7bs1LScoxT59FBRBjqPWkHoHffrpsnM1iFpuLX29zOhvckItDAaD+RtYrE8QFNP8P1ljtAAAAABJRU5ErkJggg==;fontSize=10;spacingTop=-10;" parent="1" vertex="1">
          <mxGeometry x="1036.5" y="803" width="45" height="45" as="geometry" />
        </mxCell>
        <mxCell id="XQOPoHDsZ4K9HdGl6XsR-92" value="ECS&#xa;Fargate&#xa;Container" style="shape=image;verticalLabelPosition=bottom;labelBackgroundColor=none;verticalAlign=top;aspect=fixed;imageAspect=0;image=data:image/png,iVBORw0KGgoAAAANSUhEUgAAAEsAAABLCAMAAAAPkIrYAAAAAXNSR0IArs4c6QAAAARnQU1BAACxjwv8YQUAAAINUExURQAAAP8AAP//AP+AAONVANFdAOhdANVjDtNZC9ZcCthYCtFbCdtbCc9YCNJaCNFcB9JZBs5bBtBZBtRXBdNYBdRbBdlbCtZbBdJZBNNYBNdcCdRbCdJZCNVZCNVdCNVbCNJaCNdXB9RaB9VcB9VbB9ZaB9NcB9NbB9VcB9JZBtNaBtVbBthbBtNZBtNcBthcBtRaBtxdBtxgBt9gBuJgBuJgCeJjBuJjCeVjBuVjCdVbCNRbCNleCNNbCNRaB9NbB9VbB9NcB9VbBtNbBtVbBtNaBtVcBtZbBtRaBtJbBtRbBtVbBtNaBtVaB9NaB9RbB9RcB9RbB9VbBtRbBtRbB9RaB9RcBtVcBtRbBt1eB9VcBtxdB9RbBtRbB9RbB9RbB9RaB9hdB9dcB9peB9ldB91fB95fB95gB9NaB9NaB9RaB9RbB9RcB9VbCNRcB9RbB9RcBtRcB9NbB9RbB9NbB9RbB9NbB9NbB9VcBtVbBtRbB9RbB9RbBtRcB9NbB9dcB9ddBthdBtpeB9teB9tfB9xeB9xfB91fB95fB95gB99fB99gB+BgB+FgB+FhB+NhB+NhCONiB+NiCORiB+RiCOViB+ViCOpkB+plB+tlB+tmB+xlB+xmB+1mB+1nB+5mB+5nB/FnB/FnCfFoB/FoCfJoB/NoB/NoCfNpB/NpCfRoB/RoCfRpB/VpB/VpCYKnjQEAAAB+dFJOUwABAQIJCwsSFxkaHBwgIicoKisvNDU1ODk6Ojs/QkJDREZHSElKS0xOUFJUVFZWVlhYWFhYWFhYWFhcX19icXNzdXh5eXp6e3yBgYSFi5GUmZqipausrKytra+vsLC2t7i4ubm6urq6u76+vsPMzs/R0dLV19fb3t7f5ebz+OdsBUsAAAAJcEhZcwAAFxEAABcRAcom8z8AAAGOSURBVFhH7ZbFU0JRGEdRDOzubmwFu7sTO1ERsbvjYcLTZ6KiqCh2+zfKN3N1mJHVe6MzztyzOd/8FmdzN5eFwWAwf4xJdFoqM9IijFBLcK48YoZSVY1aMyRB7jJBTmxNoNakXDoywIQxKTn81SJJd3TSw3eb0ml5o5MewZRuywed9Aj52fJITLIF2yUnuILN+PwAsHEkLxze3CCIF8uBwSM+wQZsnxznAtbTEj6/F4JLPp5awVyNZg5sLTtbsdSavXCp8oeh4/EtD1z28dAI1tOqVRxngXOVBzXgQIoaBVstyRbNtWZPbW54wVC3f5gBLlLuCcC4hVu4hVu4hVu49a9b7XcvBeDi19tmMFetngVbr58uW2jNnr848YNBeHOfAy59vW4A62nliSVh4CiJOBvs2C2qBHPauupNtTasEnU6wJAv7gkFx0jEmWA9Ldr8WmvLGZ308NT9r66Wp6TTJ6Vi7bs1LScoxT59FBRBjqPWkHoHffrpsnM1iFpuLX29zOhvckItDAaD+RtYrE8QFNP8P1ljtAAAAABJRU5ErkJggg==;fontSize=10;spacingTop=-10;" parent="1" vertex="1">
          <mxGeometry x="1087" y="803" width="45" height="45" as="geometry" />
        </mxCell>
        <mxCell id="XQOPoHDsZ4K9HdGl6XsR-93" value="ECS&#xa;Fargate&#xa;Container" style="shape=image;verticalLabelPosition=bottom;labelBackgroundColor=none;verticalAlign=top;aspect=fixed;imageAspect=0;image=data:image/png,iVBORw0KGgoAAAANSUhEUgAAAEsAAABLCAMAAAAPkIrYAAAAAXNSR0IArs4c6QAAAARnQU1BAACxjwv8YQUAAAINUExURQAAAP8AAP//AP+AAONVANFdAOhdANVjDtNZC9ZcCthYCtFbCdtbCc9YCNJaCNFcB9JZBs5bBtBZBtRXBdNYBdRbBdlbCtZbBdJZBNNYBNdcCdRbCdJZCNVZCNVdCNVbCNJaCNdXB9RaB9VcB9VbB9ZaB9NcB9NbB9VcB9JZBtNaBtVbBthbBtNZBtNcBthcBtRaBtxdBtxgBt9gBuJgBuJgCeJjBuJjCeVjBuVjCdVbCNRbCNleCNNbCNRaB9NbB9VbB9NcB9VbBtNbBtVbBtNaBtVcBtZbBtRaBtJbBtRbBtVbBtNaBtVaB9NaB9RbB9RcB9RbB9VbBtRbBtRbB9RaB9RcBtVcBtRbBt1eB9VcBtxdB9RbBtRbB9RbB9RbB9RaB9hdB9dcB9peB9ldB91fB95fB95gB9NaB9NaB9RaB9RbB9RcB9VbCNRcB9RbB9RcBtRcB9NbB9RbB9NbB9RbB9NbB9NbB9VcBtVbBtRbB9RbB9RbBtRcB9NbB9dcB9ddBthdBtpeB9teB9tfB9xeB9xfB91fB95fB95gB99fB99gB+BgB+FgB+FhB+NhB+NhCONiB+NiCORiB+RiCOViB+ViCOpkB+plB+tlB+tmB+xlB+xmB+1mB+1nB+5mB+5nB/FnB/FnCfFoB/FoCfJoB/NoB/NoCfNpB/NpCfRoB/RoCfRpB/VpB/VpCYKnjQEAAAB+dFJOUwABAQIJCwsSFxkaHBwgIicoKisvNDU1ODk6Ojs/QkJDREZHSElKS0xOUFJUVFZWVlhYWFhYWFhYWFhcX19icXNzdXh5eXp6e3yBgYSFi5GUmZqipausrKytra+vsLC2t7i4ubm6urq6u76+vsPMzs/R0dLV19fb3t7f5ebz+OdsBUsAAAAJcEhZcwAAFxEAABcRAcom8z8AAAGOSURBVFhH7ZbFU0JRGEdRDOzubmwFu7sTO1ERsbvjYcLTZ6KiqCh2+zfKN3N1mJHVe6MzztyzOd/8FmdzN5eFwWAwf4xJdFoqM9IijFBLcK48YoZSVY1aMyRB7jJBTmxNoNakXDoywIQxKTn81SJJd3TSw3eb0ml5o5MewZRuywed9Aj52fJITLIF2yUnuILN+PwAsHEkLxze3CCIF8uBwSM+wQZsnxznAtbTEj6/F4JLPp5awVyNZg5sLTtbsdSavXCp8oeh4/EtD1z28dAI1tOqVRxngXOVBzXgQIoaBVstyRbNtWZPbW54wVC3f5gBLlLuCcC4hVu4hVu4hVu49a9b7XcvBeDi19tmMFetngVbr58uW2jNnr848YNBeHOfAy59vW4A62nliSVh4CiJOBvs2C2qBHPauupNtTasEnU6wJAv7gkFx0jEmWA9Ldr8WmvLGZ308NT9r66Wp6TTJ6Vi7bs1LScoxT59FBRBjqPWkHoHffrpsnM1iFpuLX29zOhvckItDAaD+RtYrE8QFNP8P1ljtAAAAABJRU5ErkJggg==;fontSize=10;spacingTop=-10;" parent="1" vertex="1">
          <mxGeometry x="1137" y="803" width="45" height="45" as="geometry" />
        </mxCell>
        <mxCell id="XQOPoHDsZ4K9HdGl6XsR-94" value="Networking Subnet 2a" style="points=[[0,0],[0.25,0],[0.5,0],[0.75,0],[1,0],[1,0.25],[1,0.5],[1,0.75],[1,1],[0.75,1],[0.5,1],[0.25,1],[0,1],[0,0.75],[0,0.5],[0,0.25]];outlineConnect=0;gradientColor=none;html=1;whiteSpace=wrap;fontSize=12;fontStyle=0;container=1;pointerEvents=0;collapsible=0;recursiveResize=0;shape=mxgraph.aws4.group;grIcon=mxgraph.aws4.group_security_group;grStroke=0;strokeColor=#147EBA;fillColor=#E6F2F8;verticalAlign=top;align=left;spacingLeft=30;fontColor=#147EBA;dashed=0;" parent="1" vertex="1">
          <mxGeometry x="592.5" y="1064" width="276" height="153" as="geometry" />
        </mxCell>
        <mxCell id="XQOPoHDsZ4K9HdGl6XsR-95" value="S3 &lt;br&gt;Endpoint" style="sketch=0;outlineConnect=0;fontColor=#232F3E;gradientColor=none;fillColor=#8C4FFF;strokeColor=none;dashed=0;verticalLabelPosition=bottom;verticalAlign=top;align=center;html=1;fontSize=12;fontStyle=0;aspect=fixed;pointerEvents=1;shape=mxgraph.aws4.endpoints;" parent="XQOPoHDsZ4K9HdGl6XsR-94" vertex="1">
          <mxGeometry x="28" y="47" width="39" height="39" as="geometry" />
        </mxCell>
        <mxCell id="XQOPoHDsZ4K9HdGl6XsR-96" value="SaaS &lt;br&gt;Endpoint" style="sketch=0;outlineConnect=0;fontColor=#232F3E;gradientColor=none;fillColor=#8C4FFF;strokeColor=none;dashed=0;verticalLabelPosition=bottom;verticalAlign=top;align=center;html=1;fontSize=12;fontStyle=0;aspect=fixed;pointerEvents=1;shape=mxgraph.aws4.endpoints;" parent="XQOPoHDsZ4K9HdGl6XsR-94" vertex="1">
          <mxGeometry x="107.5" y="47" width="39" height="39" as="geometry" />
        </mxCell>
        <mxCell id="XQOPoHDsZ4K9HdGl6XsR-97" value="ECS Cluster" style="text;html=1;strokeColor=none;fillColor=none;align=center;verticalAlign=middle;whiteSpace=wrap;rounded=0;fontStyle=0;fontColor=#FF8000;" parent="1" vertex="1">
          <mxGeometry x="627" y="721" width="78.5" height="19" as="geometry" />
        </mxCell>
        <mxCell id="XQOPoHDsZ4K9HdGl6XsR-98" value="Networking Subnet 1b" style="points=[[0,0],[0.25,0],[0.5,0],[0.75,0],[1,0],[1,0.25],[1,0.5],[1,0.75],[1,1],[0.75,1],[0.5,1],[0.25,1],[0,1],[0,0.75],[0,0.5],[0,0.25]];outlineConnect=0;gradientColor=none;html=1;whiteSpace=wrap;fontSize=12;fontStyle=0;container=1;pointerEvents=0;collapsible=0;recursiveResize=0;shape=mxgraph.aws4.group;grIcon=mxgraph.aws4.group_security_group;grStroke=0;strokeColor=#147EBA;fillColor=#E6F2F8;verticalAlign=top;align=left;spacingLeft=30;fontColor=#147EBA;dashed=0;" parent="1" vertex="1">
          <mxGeometry x="968" y="1067" width="276" height="153" as="geometry" />
        </mxCell>
        <mxCell id="XQOPoHDsZ4K9HdGl6XsR-99" style="edgeStyle=orthogonalEdgeStyle;rounded=0;orthogonalLoop=1;jettySize=auto;html=1;exitX=0.5;exitY=0;exitDx=0;exitDy=0;exitPerimeter=0;entryX=0.5;entryY=1;entryDx=0;entryDy=0;endArrow=none;endFill=0;" parent="1" source="XQOPoHDsZ4K9HdGl6XsR-103" target="XQOPoHDsZ4K9HdGl6XsR-83" edge="1">
          <mxGeometry relative="1" as="geometry" />
        </mxCell>
        <mxCell id="XQOPoHDsZ4K9HdGl6XsR-100" style="edgeStyle=orthogonalEdgeStyle;rounded=0;orthogonalLoop=1;jettySize=auto;html=1;exitX=0;exitY=0.75;exitDx=0;exitDy=0;exitPerimeter=0;" parent="1" source="XQOPoHDsZ4K9HdGl6XsR-103" target="XQOPoHDsZ4K9HdGl6XsR-95" edge="1">
          <mxGeometry relative="1" as="geometry">
            <Array as="points">
              <mxPoint x="640" y="976" />
            </Array>
          </mxGeometry>
        </mxCell>
        <mxCell id="XQOPoHDsZ4K9HdGl6XsR-101" style="edgeStyle=orthogonalEdgeStyle;rounded=0;orthogonalLoop=1;jettySize=auto;html=1;exitX=1;exitY=0.75;exitDx=0;exitDy=0;exitPerimeter=0;" parent="1" source="XQOPoHDsZ4K9HdGl6XsR-103" target="XQOPoHDsZ4K9HdGl6XsR-96" edge="1">
          <mxGeometry relative="1" as="geometry" />
        </mxCell>
        <mxCell id="XQOPoHDsZ4K9HdGl6XsR-102" style="edgeStyle=orthogonalEdgeStyle;rounded=0;orthogonalLoop=1;jettySize=auto;html=1;exitX=0;exitY=0.25;exitDx=0;exitDy=0;exitPerimeter=0;entryX=0.5;entryY=1;entryDx=0;entryDy=0;endArrow=none;endFill=0;" parent="1" source="XQOPoHDsZ4K9HdGl6XsR-103" target="XQOPoHDsZ4K9HdGl6XsR-66" edge="1">
          <mxGeometry relative="1" as="geometry">
            <Array as="points">
              <mxPoint x="558" y="952" />
              <mxPoint x="558" y="670" />
              <mxPoint x="912" y="670" />
            </Array>
          </mxGeometry>
        </mxCell>
        <mxCell id="XQOPoHDsZ4K9HdGl6XsR-103" value="Amazon ECS" style="sketch=0;points=[[0,0,0],[0.25,0,0],[0.5,0,0],[0.75,0,0],[1,0,0],[0,1,0],[0.25,1,0],[0.5,1,0],[0.75,1,0],[1,1,0],[0,0.25,0],[0,0.5,0],[0,0.75,0],[1,0.25,0],[1,0.5,0],[1,0.75,0]];outlineConnect=0;fontColor=#232F3E;fillColor=#ED7100;strokeColor=#ffffff;dashed=0;verticalLabelPosition=bottom;verticalAlign=top;align=center;html=1;fontSize=12;fontStyle=0;aspect=fixed;shape=mxgraph.aws4.resourceIcon;resIcon=mxgraph.aws4.ecs;" parent="1" vertex="1">
          <mxGeometry x="705.5" y="939" width="50" height="50" as="geometry" />
        </mxCell>
        <mxCell id="XQOPoHDsZ4K9HdGl6XsR-104" style="edgeStyle=orthogonalEdgeStyle;rounded=0;orthogonalLoop=1;jettySize=auto;html=1;endArrow=none;endFill=0;" parent="1" source="XQOPoHDsZ4K9HdGl6XsR-105" target="XQOPoHDsZ4K9HdGl6XsR-89" edge="1">
          <mxGeometry relative="1" as="geometry" />
        </mxCell>
        <mxCell id="XQOPoHDsZ4K9HdGl6XsR-105" value="Amazon ECS" style="sketch=0;points=[[0,0,0],[0.25,0,0],[0.5,0,0],[0.75,0,0],[1,0,0],[0,1,0],[0.25,1,0],[0.5,1,0],[0.75,1,0],[1,1,0],[0,0.25,0],[0,0.5,0],[0,0.75,0],[1,0.25,0],[1,0.5,0],[1,0.75,0]];outlineConnect=0;fontColor=#232F3E;fillColor=#ED7100;strokeColor=#ffffff;dashed=0;verticalLabelPosition=bottom;verticalAlign=top;align=center;html=1;fontSize=12;fontStyle=0;aspect=fixed;shape=mxgraph.aws4.resourceIcon;resIcon=mxgraph.aws4.ecs;" parent="1" vertex="1">
          <mxGeometry x="1082" y="939" width="50" height="50" as="geometry" />
        </mxCell>
        <mxCell id="XQOPoHDsZ4K9HdGl6XsR-106" style="edgeStyle=orthogonalEdgeStyle;rounded=0;orthogonalLoop=1;jettySize=auto;html=1;exitX=1;exitY=0.5;exitDx=0;exitDy=0;exitPerimeter=0;" parent="1" source="XQOPoHDsZ4K9HdGl6XsR-67" target="XQOPoHDsZ4K9HdGl6XsR-69" edge="1">
          <mxGeometry relative="1" as="geometry" />
        </mxCell>
        <mxCell id="XQOPoHDsZ4K9HdGl6XsR-107" style="edgeStyle=orthogonalEdgeStyle;rounded=0;orthogonalLoop=1;jettySize=auto;html=1;entryX=0;entryY=0.5;entryDx=0;entryDy=0;entryPerimeter=0;endArrow=none;endFill=0;" parent="1" source="XQOPoHDsZ4K9HdGl6XsR-114" target="XQOPoHDsZ4K9HdGl6XsR-105" edge="1">
          <mxGeometry relative="1" as="geometry">
            <Array as="points">
              <mxPoint x="1014" y="964" />
            </Array>
          </mxGeometry>
        </mxCell>
        <mxCell id="XQOPoHDsZ4K9HdGl6XsR-108" style="edgeStyle=orthogonalEdgeStyle;rounded=0;orthogonalLoop=1;jettySize=auto;html=1;entryX=0;entryY=0.5;entryDx=0;entryDy=0;entryPerimeter=0;" parent="1" source="XQOPoHDsZ4K9HdGl6XsR-95" target="XQOPoHDsZ4K9HdGl6XsR-65" edge="1">
          <mxGeometry relative="1" as="geometry">
            <mxPoint x="1339" y="1037" as="targetPoint" />
            <Array as="points">
              <mxPoint x="535" y="1131" />
              <mxPoint x="535" y="234" />
            </Array>
          </mxGeometry>
        </mxCell>
        <mxCell id="XQOPoHDsZ4K9HdGl6XsR-109" value="S3 &lt;br&gt;Endpoint" style="sketch=0;outlineConnect=0;fontColor=#232F3E;gradientColor=none;fillColor=#8C4FFF;strokeColor=none;dashed=0;verticalLabelPosition=bottom;verticalAlign=top;align=center;html=1;fontSize=12;fontStyle=0;aspect=fixed;pointerEvents=1;shape=mxgraph.aws4.endpoints;" parent="1" vertex="1">
          <mxGeometry x="1176" y="1111" width="39" height="39" as="geometry" />
        </mxCell>
        <mxCell id="XQOPoHDsZ4K9HdGl6XsR-110" style="edgeStyle=orthogonalEdgeStyle;rounded=0;orthogonalLoop=1;jettySize=auto;html=1;exitX=1;exitY=0.5;exitDx=0;exitDy=0;exitPerimeter=0;" parent="1" source="XQOPoHDsZ4K9HdGl6XsR-105" target="XQOPoHDsZ4K9HdGl6XsR-109" edge="1">
          <mxGeometry relative="1" as="geometry" />
        </mxCell>
        <mxCell id="XQOPoHDsZ4K9HdGl6XsR-111" style="edgeStyle=orthogonalEdgeStyle;rounded=0;orthogonalLoop=1;jettySize=auto;html=1;entryX=1;entryY=0.5;entryDx=0;entryDy=0;entryPerimeter=0;" parent="1" source="XQOPoHDsZ4K9HdGl6XsR-109" target="XQOPoHDsZ4K9HdGl6XsR-65" edge="1">
          <mxGeometry relative="1" as="geometry">
            <Array as="points">
              <mxPoint x="1296" y="1131" />
              <mxPoint x="1296" y="234" />
            </Array>
          </mxGeometry>
        </mxCell>
        <mxCell id="XQOPoHDsZ4K9HdGl6XsR-112" style="edgeStyle=orthogonalEdgeStyle;rounded=0;orthogonalLoop=1;jettySize=auto;html=1;entryX=1;entryY=0.5;entryDx=0;entryDy=0;entryPerimeter=0;endArrow=none;endFill=0;" parent="1" source="XQOPoHDsZ4K9HdGl6XsR-115" target="XQOPoHDsZ4K9HdGl6XsR-103" edge="1">
          <mxGeometry relative="1" as="geometry">
            <Array as="points">
              <mxPoint x="821" y="964" />
            </Array>
          </mxGeometry>
        </mxCell>
        <mxCell id="XQOPoHDsZ4K9HdGl6XsR-113" value="SaaS &lt;br&gt;Endpoint" style="sketch=0;outlineConnect=0;fontColor=#232F3E;gradientColor=none;fillColor=#8C4FFF;strokeColor=none;dashed=0;verticalLabelPosition=bottom;verticalAlign=top;align=center;html=1;fontSize=12;fontStyle=0;aspect=fixed;pointerEvents=1;shape=mxgraph.aws4.endpoints;" parent="1" vertex="1">
          <mxGeometry x="1087.5" y="1111" width="39" height="39" as="geometry" />
        </mxCell>
        <mxCell id="XQOPoHDsZ4K9HdGl6XsR-114" value="TGW &lt;br&gt;Endpoint" style="sketch=0;outlineConnect=0;fontColor=#232F3E;gradientColor=none;fillColor=#8C4FFF;strokeColor=none;dashed=0;verticalLabelPosition=bottom;verticalAlign=top;align=center;html=1;fontSize=12;fontStyle=0;aspect=fixed;pointerEvents=1;shape=mxgraph.aws4.endpoints;" parent="1" vertex="1">
          <mxGeometry x="994.5" y="1111" width="39" height="39" as="geometry" />
        </mxCell>
        <mxCell id="XQOPoHDsZ4K9HdGl6XsR-115" value="TGW &lt;br&gt;Endpoint" style="sketch=0;outlineConnect=0;fontColor=#232F3E;gradientColor=none;fillColor=#8C4FFF;strokeColor=none;dashed=0;verticalLabelPosition=bottom;verticalAlign=top;align=center;html=1;fontSize=12;fontStyle=0;aspect=fixed;pointerEvents=1;shape=mxgraph.aws4.endpoints;" parent="1" vertex="1">
          <mxGeometry x="801.5" y="1111" width="39" height="39" as="geometry" />
        </mxCell>
        <mxCell id="XQOPoHDsZ4K9HdGl6XsR-116" style="edgeStyle=orthogonalEdgeStyle;rounded=0;orthogonalLoop=1;jettySize=auto;html=1;entryX=1;entryY=0.5;entryDx=0;entryDy=0;entryPerimeter=0;" parent="1" source="XQOPoHDsZ4K9HdGl6XsR-113" target="XQOPoHDsZ4K9HdGl6XsR-36" edge="1">
          <mxGeometry relative="1" as="geometry">
            <Array as="points">
              <mxPoint x="1107" y="1418" />
            </Array>
          </mxGeometry>
        </mxCell>
        <mxCell id="XQOPoHDsZ4K9HdGl6XsR-117" style="edgeStyle=orthogonalEdgeStyle;rounded=0;orthogonalLoop=1;jettySize=auto;html=1;entryX=0.5;entryY=0;entryDx=0;entryDy=0;entryPerimeter=0;" parent="1" source="XQOPoHDsZ4K9HdGl6XsR-96" target="XQOPoHDsZ4K9HdGl6XsR-36" edge="1">
          <mxGeometry relative="1" as="geometry" />
        </mxCell>
        <mxCell id="XQOPoHDsZ4K9HdGl6XsR-118" style="edgeStyle=orthogonalEdgeStyle;rounded=0;orthogonalLoop=1;jettySize=auto;html=1;exitX=1;exitY=0.5;exitDx=0;exitDy=0;exitPerimeter=0;endArrow=none;endFill=0;" parent="1" source="XQOPoHDsZ4K9HdGl6XsR-72" target="XQOPoHDsZ4K9HdGl6XsR-114" edge="1">
          <mxGeometry relative="1" as="geometry" />
        </mxCell>
        <mxCell id="XQOPoHDsZ4K9HdGl6XsR-119" style="edgeStyle=orthogonalEdgeStyle;rounded=0;orthogonalLoop=1;jettySize=auto;html=1;exitX=0;exitY=0.5;exitDx=0;exitDy=0;exitPerimeter=0;endArrow=none;endFill=0;" parent="1" source="XQOPoHDsZ4K9HdGl6XsR-72" target="XQOPoHDsZ4K9HdGl6XsR-115" edge="1">
          <mxGeometry relative="1" as="geometry" />
        </mxCell>
        <mxCell id="XQOPoHDsZ4K9HdGl6XsR-120" style="edgeStyle=orthogonalEdgeStyle;rounded=0;orthogonalLoop=1;jettySize=auto;html=1;exitX=1;exitY=0.5;exitDx=0;exitDy=0;exitPerimeter=0;entryX=0;entryY=0.5;entryDx=0;entryDy=0;entryPerimeter=0;" parent="1" source="XQOPoHDsZ4K9HdGl6XsR-63" target="XQOPoHDsZ4K9HdGl6XsR-61" edge="1">
          <mxGeometry relative="1" as="geometry" />
        </mxCell>
        <mxCell id="XQOPoHDsZ4K9HdGl6XsR-121" style="edgeStyle=orthogonalEdgeStyle;rounded=0;orthogonalLoop=1;jettySize=auto;html=1;exitX=0;exitY=0.75;exitDx=0;exitDy=0;exitPerimeter=0;" parent="1" source="XQOPoHDsZ4K9HdGl6XsR-105" target="XQOPoHDsZ4K9HdGl6XsR-113" edge="1">
          <mxGeometry relative="1" as="geometry">
            <Array as="points">
              <mxPoint x="1044" y="977" />
              <mxPoint x="1044" y="1050" />
              <mxPoint x="1107" y="1050" />
            </Array>
          </mxGeometry>
        </mxCell>
        <mxCell id="XQOPoHDsZ4K9HdGl6XsR-122" style="edgeStyle=orthogonalEdgeStyle;rounded=0;orthogonalLoop=1;jettySize=auto;html=1;exitX=1;exitY=0.25;exitDx=0;exitDy=0;exitPerimeter=0;entryX=0.516;entryY=1.008;entryDx=0;entryDy=0;entryPerimeter=0;endArrow=none;endFill=0;" parent="1" source="XQOPoHDsZ4K9HdGl6XsR-105" target="XQOPoHDsZ4K9HdGl6XsR-66" edge="1">
          <mxGeometry relative="1" as="geometry">
            <Array as="points">
              <mxPoint x="1272" y="952" />
              <mxPoint x="1272" y="670" />
              <mxPoint x="923" y="670" />
            </Array>
          </mxGeometry>
        </mxCell>
        <mxCell id="XQOPoHDsZ4K9HdGl6XsR-123" style="edgeStyle=orthogonalEdgeStyle;rounded=0;orthogonalLoop=1;jettySize=auto;html=1;entryX=1;entryY=0.75;entryDx=0;entryDy=0;entryPerimeter=0;dashed=1;exitX=0;exitY=0.5;exitDx=0;exitDy=0;exitPerimeter=0;" parent="1" source="XQOPoHDsZ4K9HdGl6XsR-22" target="XQOPoHDsZ4K9HdGl6XsR-72" edge="1">
          <mxGeometry relative="1" as="geometry">
            <Array as="points">
              <mxPoint x="1489" y="1208" />
              <mxPoint x="1489" y="1351" />
            </Array>
          </mxGeometry>
        </mxCell>
        <mxCell id="XQOPoHDsZ4K9HdGl6XsR-124" style="edgeStyle=orthogonalEdgeStyle;rounded=0;orthogonalLoop=1;jettySize=auto;html=1;exitX=0;exitY=0.5;exitDx=0;exitDy=0;exitPerimeter=0;dashed=1;" parent="1" source="XQOPoHDsZ4K9HdGl6XsR-33" target="XQOPoHDsZ4K9HdGl6XsR-80" edge="1">
          <mxGeometry relative="1" as="geometry">
            <Array as="points">
              <mxPoint x="1316" y="917" />
              <mxPoint x="1316" y="865" />
            </Array>
          </mxGeometry>
        </mxCell>
        <mxCell id="XQOPoHDsZ4K9HdGl6XsR-125" style="edgeStyle=orthogonalEdgeStyle;rounded=0;orthogonalLoop=1;jettySize=auto;html=1;entryX=1;entryY=0.39;entryDx=0;entryDy=0;entryPerimeter=0;exitX=0;exitY=0.5;exitDx=0;exitDy=0;exitPerimeter=0;dashed=1;" parent="1" source="XQOPoHDsZ4K9HdGl6XsR-11" target="XQOPoHDsZ4K9HdGl6XsR-80" edge="1">
          <mxGeometry relative="1" as="geometry">
            <Array as="points">
              <mxPoint x="1318" y="477" />
              <mxPoint x="1318" y="831" />
            </Array>
          </mxGeometry>
        </mxCell>
      </root>
    </mxGraphModel>
  </diagram>
</mxfile>
